<?xml version="1.0" encoding="UTF-8" standalone="no"?>
<!-- Created with Inkscape (http://www.inkscape.org/) -->

<svg
   xmlns:dc="http://purl.org/dc/elements/1.1/"
   xmlns:cc="http://creativecommons.org/ns#"
   xmlns:rdf="http://www.w3.org/1999/02/22-rdf-syntax-ns#"
   xmlns:svg="http://www.w3.org/2000/svg"
   xmlns="http://www.w3.org/2000/svg"
   xmlns:sodipodi="http://sodipodi.sourceforge.net/DTD/sodipodi-0.dtd"
   xmlns:inkscape="http://www.inkscape.org/namespaces/inkscape"
   width="102.01958mm"
   height="23.778513mm"
   viewBox="0 0 102.01958 23.778513"
   version="1.1"
   id="svg4646"
   inkscape:version="0.92.4 (unknown)"
   sodipodi:docname="SenaTechs.svg"
   inkscape:export-filename="/home/smile/STS2017/0  -  Design/logos/STS/Senatechs.png"
   inkscape:export-xdpi="87"
   inkscape:export-ydpi="87">
  <defs
     id="defs4640" />
  <sodipodi:namedview
     id="base"
     pagecolor="#ffffff"
     bordercolor="#666666"
     borderopacity="1.0"
     inkscape:pageopacity="0.0"
     inkscape:pageshadow="2"
     inkscape:zoom="1.7184617"
     inkscape:cx="101.8553"
     inkscape:cy="135.35291"
     inkscape:document-units="mm"
     inkscape:current-layer="layer1"
     showgrid="false"
     inkscape:window-width="1855"
     inkscape:window-height="1056"
     inkscape:window-x="65"
     inkscape:window-y="24"
     inkscape:window-maximized="1"
     showguides="true"
     inkscape:guide-bbox="true"
     inkscape:snap-global="false"
     fit-margin-top="0"
     fit-margin-left="0"
     fit-margin-right="0"
     fit-margin-bottom="0" />
  <metadata
     id="metadata4643">
    <rdf:RDF>
      <cc:Work
         rdf:about="">
        <dc:format>image/svg+xml</dc:format>
        <dc:type
           rdf:resource="http://purl.org/dc/dcmitype/StillImage" />
        <dc:title />
      </cc:Work>
    </rdf:RDF>
  </metadata>
  <g
     inkscape:label="Layer 1"
     inkscape:groupmode="layer"
     id="layer1"
     transform="translate(-6.537083,-8.7156547)">
    <path
       inkscape:connector-curvature="0"
       style="font-style:normal;font-weight:normal;font-size:10.58333302px;line-height:1.25;font-family:sans-serif;letter-spacing:0px;word-spacing:0px;fill:#ba7500;fill-opacity:1;stroke:none;stroke-width:0.26458332"
       d="m 102.4917,14.549391 c -0.8351,0 -1.61231,0.119889 -2.33164,0.359668 -0.711063,0.23151 -1.331183,0.566373 -1.860353,1.00459 -0.52089,0.429948 -0.93017,0.950846 -1.22783,1.562695 -0.29765,0.611849 -0.44648,1.293978 -0.44648,2.046387 0,0.644921 0.10335,1.203027 0.31006,1.674316 0.21497,0.463021 0.50023,0.868164 0.85576,1.21543 0.3638,0.347265 0.78135,0.653187 1.25263,0.917773 0.47956,0.264584 0.979793,0.520899 1.500683,0.768946 0.46302,0.223242 0.95498,0.454752 1.47588,0.694531 0.5209,0.239779 1.00045,0.51263 1.43867,0.818555 0.44648,0.297656 0.81442,0.640786 1.10381,1.029393 0.29766,0.380338 0.44648,0.826823 0.44648,1.339453 0,0.471289 -0.0951,0.892969 -0.28525,1.265039 -0.1819,0.37207 -0.43822,0.686263 -0.76895,0.942578 -0.33072,0.256315 -0.7276,0.454753 -1.19062,0.595313 -0.45475,0.132291 -0.95085,0.198437 -1.48828,0.198437 -0.39688,0 -0.75241,-0.02894 -1.06661,-0.08682 -0.305913,-0.05788 -0.566363,-0.119891 -0.781333,-0.186036 -0.21498,-0.07442 -0.38448,-0.14056 -0.5085,-0.198438 l -0.21084,-0.11162 c -0.0909,-0.04134 -0.1819,-0.11989 -0.27285,-0.235646 -0.0827,-0.115755 -0.13229,-0.223242 -0.14883,-0.322461 l -0.33486,-2.877338 h -1.5999 v 4.502052 c 0.3638,0.173633 0.77308,0.330729 1.22783,0.471289 0.39687,0.115755 0.86816,0.223242 1.41387,0.322461 0.55397,0.09922 1.178213,0.148828 1.872743,0.148828 1.19063,0 2.21175,-0.148828 3.06338,-0.446484 0.85163,-0.297657 1.55029,-0.690399 2.096,-1.178224 0.5457,-0.487826 0.94258,-1.041797 1.19062,-1.661914 0.25632,-0.620118 0.38447,-1.252636 0.38447,-1.897558 0,-0.636653 -0.10748,-1.19476 -0.32246,-1.674317 -0.21497,-0.487826 -0.52916,-0.926042 -0.94258,-1.314649 -0.40514,-0.388607 -0.9095,-0.740005 -1.51308,-1.054198 -0.59531,-0.314196 -1.27744,-0.615983 -2.04639,-0.905371 -0.57051,-0.214974 -1.07487,-0.438216 -1.51308,-0.669727 -0.43822,-0.23151 -0.81029,-0.479557 -1.11622,-0.74414 -0.297643,-0.272852 -0.525023,-0.566374 -0.682123,-0.880567 -0.14882,-0.322461 -0.22324,-0.677994 -0.22324,-1.066601 0,-0.429948 0.0744,-0.826823 0.22324,-1.190625 0.1571,-0.363802 0.37621,-0.677995 0.657323,-0.942578 0.28112,-0.272852 0.62425,-0.483692 1.02939,-0.63252 0.40515,-0.148828 0.86403,-0.223242 1.37666,-0.223242 0.35554,0 0.6656,0.0248 0.93018,0.07441 0.26458,0.04961 0.48369,0.107487 0.65733,0.173633 0.1819,0.06615 0.32246,0.132291 0.42168,0.198437 0.0992,0.05788 0.16536,0.09922 0.19843,0.124024 0.0744,0.07441 0.15296,0.14056 0.23565,0.198437 0.0909,0.04961 0.14469,0.132292 0.16123,0.248047 l 0.38447,2.430859 h 1.45108 v -3.956347 l -0.22325,-0.07441 c -0.27285,-0.08268 -0.56224,-0.169499 -0.86816,-0.260449 -0.30593,-0.09922 -0.63665,-0.186036 -0.99219,-0.26045 -0.34726,-0.08268 -0.71933,-0.148828 -1.11621,-0.198437 -0.39687,-0.04961 -0.82269,-0.07441 -1.27744,-0.07441 z"
       id="path4857"
       inkscape:export-xdpi="87"
       inkscape:export-ydpi="87" />
    <path
       inkscape:connector-curvature="0"
       id="path4849"
       style="font-style:normal;font-weight:normal;font-size:10.58333302px;line-height:1.25;font-family:sans-serif;letter-spacing:0px;word-spacing:0px;fill:#01386e;fill-opacity:1;stroke:none;stroke-width:0.26458332"
       d="m 57.755712,16.242163 c -0.0011,9e-4 -0.0021,0.0022 -0.0031,0.0031 0.0045,0.0097 0.01019,0.02392 0.0088,0.01757 -0.0033,-0.01512 -0.0043,-0.01691 -0.0057,-0.02067 z m -0.03669,0.02377 c -0.0158,0.0096 -0.03146,0.0193 -0.04806,0.02532 0.0019,0.01311 0.0051,0.02316 0.01138,0.01654 0.01471,-0.01557 0.02529,-0.02831 0.03669,-0.04186 z m -0.862481,0.08423 c -0.01585,0.01014 -0.03166,0.01868 -0.04754,0.02894 0.0091,-2.6e-5 0.01826,-3e-6 0.02739,0 0.0067,3.9e-5 0.01344,-1.9e-5 0.02016,0 -2.33e-4,-0.0097 2.56e-4,-0.01929 0,-0.02894 z"
       inkscape:export-xdpi="87"
       inkscape:export-ydpi="87" />
    <path
       inkscape:connector-curvature="0"
       id="path4841"
       style="font-style:normal;font-weight:normal;font-size:10.58333302px;line-height:1.25;font-family:sans-serif;letter-spacing:0px;word-spacing:0px;fill:#ba7500;fill-opacity:1;stroke:none;stroke-width:0.26458332"
       d="m 56.999095,15.375036 v 0.03514 c 1.75e-4,0.0061 -0.0016,0.01209 -0.0026,0.01809 5.29e-4,0.0019 0.0026,0.0012 0.0026,0.0036 v 0.183452 0.09767 5.29e-4 0.01654 0.0279 0.001 0.01654 0.07337 0.02481 c 0,0.0014 2.09e-4,0.0027 0,0.0041 -1.56e-4,0.0013 -7.94e-4,0.0024 -0.0011,0.0036 0.0021,0.05433 0.0013,0.109017 0.0011,0.163297 6.9e-5,0.05721 3.7e-5,0.114357 0,0.171566 -3.2e-5,0.02063 -1.1e-5,0.04087 0,0.06149 v 0.0046 c -3e-6,10e-4 -3e-6,0.0021 0,0.0031 v 10e-4 0.04393 0.0077 c 0,0.0071 2.64e-4,0.01458 0,0.0217 v 0.01912 0.05168 c 0,0.0081 5.29e-4,0.01785 -0.0011,0.02584 -2.15e-4,0.0012 -7.94e-4,0.0024 -0.0011,0.0036 3.7e-5,0.0034 -8e-6,0.0069 0,0.01034 2.65e-4,0.0016 0.0021,0.001 0.0021,0.0031 v 0.06976 0.02067 c 0.0011,0.0013 0.0026,0.0015 0.0026,0.0041 v 0.001 0.0021 0.0083 0.03256 c 0,0.002 -0.0013,0.0019 -0.0021,0.0031 h 0.0026 v 14.051852 c 0,0.124024 -0.04547,0.243912 -0.136425,0.359667 -0.08268,0.115755 -0.214974,0.181901 -0.396875,0.198437 l -1.624708,0.09922 v 1.091406 h 6.883302 v -1.091406 l -1.624708,-0.09922 c -0.181901,-0.01654 -0.318326,-0.08268 -0.409276,-0.198437 -0.08268,-0.115755 -0.124024,-0.235643 -0.124024,-0.359667 V 16.615271 h 0.0066 v -0.03256 -0.555005 -0.652674 z m -0.02119,0.583427 c -0.0039,0.0057 -0.0082,0.01259 -0.01085,0.0052 3.7e-5,0.01298 -0.0034,0.02767 -0.0067,0.04341 0.0074,0.02168 0.01289,0.04531 0.0181,0.06976 -3.2e-5,-0.01085 0,-0.02173 0,-0.03256 1.59e-4,-0.02858 -1.88e-4,-0.05718 0,-0.08578 z m 4.450379,0.394808 v 0.115755 c 0.01685,0.0011 0.03291,9.79e-4 0.05012,0.0021 -0.01934,-0.03457 -0.03632,-0.07353 -0.05012,-0.117819 z"
       inkscape:export-xdpi="87"
       inkscape:export-ydpi="87" />
    <path
       inkscape:connector-curvature="0"
       id="rect4755"
       style="fill:#ba7500;fill-opacity:1;stroke-width:0.45527157"
       d="m 57.002599,12.090479 v 8.009255 h 2.582547 v -8.009255 z"
       inkscape:export-xdpi="87"
       inkscape:export-ydpi="87" />
    <path
       inkscape:connector-curvature="0"
       style="font-style:normal;font-weight:normal;font-size:10.58333302px;line-height:1.25;font-family:sans-serif;letter-spacing:0px;word-spacing:0px;fill:#ba7500;fill-opacity:1;stroke:none;stroke-width:0.26458332"
       d="m 14.263586,14.557291 c -0.8351,0 -1.61231,0.119889 -2.33164,0.359668 -0.71107,0.23151 -1.33119,0.566373 -1.86036,1.00459 -0.5208903,0.429948 -0.9301709,0.950846 -1.2278299,1.562696 -0.29765,0.611849 -0.44648,1.293977 -0.44648,2.046387 0,0.644921 0.10335,1.203027 0.31006,1.674315 0.21497,0.463022 0.5002295,0.868164 0.8557596,1.215431 0.3638,0.347264 0.7813503,0.653187 1.2526303,0.917773 0.47956,0.264583 0.97979,0.520899 1.50069,0.768946 0.46302,0.223242 0.95498,0.454751 1.47588,0.69453 0.5209,0.239779 1.00045,0.51263 1.43867,0.818555 0.44648,0.297656 0.81442,0.640786 1.10381,1.029393 0.29766,0.380338 0.44648,0.826823 0.44648,1.339453 0,0.471289 -0.0951,0.892969 -0.28525,1.265039 -0.1819,0.37207 -0.43822,0.686263 -0.76895,0.942578 -0.33072,0.256315 -0.7276,0.454753 -1.19062,0.595313 -0.45475,0.132291 -0.95085,0.198437 -1.48828,0.198437 -0.39688,0 -0.75241,-0.02894 -1.06661,-0.08682 -0.30592,-0.05788 -0.56637,-0.119891 -0.78134,-0.186036 -0.21498,-0.07442 -0.38448,-0.14056 -0.5085,-0.198438 l -0.21084,-0.11162 c -0.0909,-0.04134 -0.1819,-0.11989 -0.27285,-0.235646 -0.0827,-0.115755 -0.13229,-0.223242 -0.14883,-0.322461 L 9.7243257,26.972036 H 8.1244261 v 4.502052 c 0.3638,0.173633 0.77308,0.330729 1.2278295,0.471289 0.3968701,0.115755 0.8681604,0.223242 1.4138704,0.322461 0.55397,0.09922 1.17822,0.148828 1.87275,0.148828 1.19063,0 2.21175,-0.148828 3.06338,-0.446484 0.85163,-0.297657 1.55029,-0.690399 2.096,-1.178224 0.5457,-0.487826 0.94258,-1.041797 1.19062,-1.661914 0.25632,-0.620118 0.38447,-1.252636 0.38447,-1.897558 0,-0.636653 -0.10748,-1.19476 -0.32246,-1.674317 -0.21497,-0.487826 -0.52916,-0.926042 -0.94258,-1.314648 -0.40514,-0.388607 -0.9095,-0.740005 -1.51308,-1.054199 -0.59531,-0.314195 -1.27744,-0.615982 -2.04639,-0.90537 -0.57051,-0.214974 -1.07487,-0.438217 -1.51308,-0.669727 -0.43822,-0.23151 -0.81029,-0.479558 -1.11622,-0.744141 -0.29765,-0.272851 -0.52503,-0.566374 -0.68213,-0.880567 -0.14882,-0.32246 -0.22324,-0.677994 -0.22324,-1.066601 0,-0.429947 0.0744,-0.826822 0.22324,-1.190625 0.1571,-0.363802 0.37621,-0.677995 0.65733,-0.942578 0.28112,-0.272852 0.62425,-0.483692 1.02939,-0.63252 0.40515,-0.148828 0.86403,-0.223242 1.37666,-0.223242 0.35554,0 0.6656,0.0248 0.93018,0.07441 0.26458,0.04961 0.48369,0.107487 0.65733,0.173633 0.1819,0.06615 0.32246,0.132291 0.42168,0.198437 0.0992,0.05788 0.16536,0.09922 0.19843,0.124024 0.0744,0.07441 0.15296,0.14056 0.23565,0.198437 0.0909,0.04961 0.14469,0.132292 0.16123,0.248047 l 0.38447,2.430859 h 1.45108 v -3.956347 l -0.22325,-0.07441 c -0.27285,-0.08268 -0.56224,-0.169499 -0.86816,-0.260449 -0.30593,-0.09922 -0.63665,-0.186036 -0.99219,-0.26045 -0.34726,-0.08268 -0.71933,-0.148828 -1.11621,-0.198437 -0.39687,-0.04961 -0.82269,-0.07441 -1.27744,-0.07441 z"
       id="path4857-5"
       inkscape:export-xdpi="87"
       inkscape:export-ydpi="87" />
    <rect
       style="fill:#ba7500;fill-opacity:1;stroke-width:0.43849564"
       id="rect6369-7-4-3"
       width="97.462357"
       height="2.3996265"
       x="6.8121428"
       y="9.6792164"
       ry="1.1371458e-13"
       transform="matrix(0.99999989,4.7007841e-4,0.02238459,0.99974943,0,0)"
       inkscape:export-xdpi="87"
       inkscape:export-ydpi="87" />
    <rect
       style="fill:#ba7500;fill-opacity:1;stroke-width:0.15797812"
       id="rect6369-7-4-3-8"
       width="12.653397"
       height="2.3990362"
       x="46.040085"
       y="9.7432737"
       ry="1.1368661e-13"
       transform="matrix(0.99999989,-4.6745061e-4,0.0070964,0.99997482,0,0)"
       inkscape:export-xdpi="87"
       inkscape:export-ydpi="87" />
    <rect
       style="fill:#ba7500;fill-opacity:1;stroke-width:0.15797812"
       id="rect6369-7-4-3-8-6"
       width="12.653397"
       height="2.3990362"
       x="56.12236"
       y="9.7430391"
       ry="1.1368661e-13"
       transform="matrix(0.99999989,-4.6744996e-4,0.0070964,0.99997482,0,0)"
       inkscape:export-xdpi="87"
       inkscape:export-ydpi="87" />
    <rect
       style="fill:#ba7500;fill-opacity:1;stroke-width:0.15797812"
       id="rect6369-7-4-3-8-6-6"
       width="12.653397"
       height="2.3990362"
       x="95.577591"
       y="9.7512779"
       ry="1.1368661e-13"
       transform="matrix(0.99999989,-4.6744996e-4,0.0070964,0.99997482,0,0)"
       inkscape:export-xdpi="87"
       inkscape:export-ydpi="87" />
    <text
       xml:space="preserve"
       style="font-style:normal;font-weight:normal;font-size:12.88501644px;line-height:1.25;font-family:sans-serif;letter-spacing:0px;word-spacing:0px;fill:#01386e;fill-opacity:1;stroke:none;stroke-width:0.32212541"
       x="20.791052"
       y="32.162331"
       id="text834"
       inkscape:export-xdpi="87"
       inkscape:export-ydpi="87"><tspan
         sodipodi:role="line"
         id="tspan832"
         x="20.791052"
         y="32.162331"
         style="font-style:normal;font-variant:normal;font-weight:normal;font-stretch:normal;font-size:20.61602592px;font-family:'Abyssinica SIL';-inkscape-font-specification:'Abyssinica SIL, Normal';font-variant-ligatures:normal;font-variant-caps:normal;font-variant-numeric:normal;font-feature-settings:normal;text-align:start;writing-mode:lr-tb;text-anchor:start;fill:#01386e;fill-opacity:1;stroke-width:0.32212541">ena</tspan></text>
    <text
       id="text842"
       y="32.162331"
       x="63.145092"
       style="font-style:normal;font-weight:normal;font-size:12.88501644px;line-height:1.25;font-family:sans-serif;letter-spacing:0px;word-spacing:0px;fill:#01386e;fill-opacity:1;stroke:none;stroke-width:0.32212541"
       xml:space="preserve"
       inkscape:export-xdpi="87"
       inkscape:export-ydpi="87"><tspan
         style="font-style:normal;font-variant:normal;font-weight:normal;font-stretch:normal;font-size:20.61602592px;font-family:'Abyssinica SIL';-inkscape-font-specification:'Abyssinica SIL, Normal';font-variant-ligatures:normal;font-variant-caps:normal;font-variant-numeric:normal;font-feature-settings:normal;text-align:start;writing-mode:lr-tb;text-anchor:start;fill:#01386e;fill-opacity:1;stroke-width:0.32212541"
         y="32.162331"
         x="63.145092"
         id="tspan840"
         sodipodi:role="line">ech</tspan></text>
  </g>
</svg>
