<?xml version="1.0" encoding="UTF-8" standalone="no"?>
<svg
   xmlns:dc="http://purl.org/dc/elements/1.1/"
   xmlns:cc="http://creativecommons.org/ns#"
   xmlns:rdf="http://www.w3.org/1999/02/22-rdf-syntax-ns#"
   xmlns:svg="http://www.w3.org/2000/svg"
   xmlns="http://www.w3.org/2000/svg"
   xmlns:sodipodi="http://sodipodi.sourceforge.net/DTD/sodipodi-0.dtd"
   xmlns:inkscape="http://www.inkscape.org/namespaces/inkscape"
   version="1.1"
   id="Layer_1"
   x="0px"
   y="0px"
   viewBox="0 0 1558 1690.483"
   enable-background="new 0 0 1558 1690.483"
   xml:space="preserve"
   sodipodi:docname="ninja.svg"
   inkscape:version="0.92.4 (unknown)"><metadata
   id="metadata107"><rdf:RDF><cc:Work
       rdf:about=""><dc:format>image/svg+xml</dc:format><dc:type
         rdf:resource="http://purl.org/dc/dcmitype/StillImage" /></cc:Work></rdf:RDF></metadata><defs
   id="defs105"><inkscape:path-effect
     effect="mirror_symmetry"
     start_point="1516.3041,45.24121"
     end_point="1516.3041,1645.2423"
     center_point="1516.3041,845.24175"
     id="path-effect916"
     is_visible="true"
     mode="free"
     discard_orig_path="true"
     fuse_paths="false"
     oposite_fuse="false" /><inkscape:path-effect
     effect="mirror_symmetry"
     start_point="1516.3041,45.24121"
     end_point="1516.3041,1645.2423"
     center_point="1516.3041,845.24175"
     id="path-effect914"
     is_visible="true"
     mode="free"
     discard_orig_path="false"
     fuse_paths="false"
     oposite_fuse="false" /></defs><sodipodi:namedview
   pagecolor="#ffffff"
   bordercolor="#666666"
   borderopacity="1"
   objecttolerance="10"
   gridtolerance="10"
   guidetolerance="10"
   inkscape:pageopacity="0"
   inkscape:pageshadow="2"
   inkscape:window-width="1855"
   inkscape:window-height="1056"
   id="namedview103"
   showgrid="false"
   inkscape:zoom="0.26012351"
   inkscape:cx="1046.0575"
   inkscape:cy="954.98655"
   inkscape:window-x="65"
   inkscape:window-y="24"
   inkscape:window-maximized="1"
   inkscape:current-layer="Layer_1" />
<g
   id="g100"
   transform="translate(-1483.9105,7.6886553)"
   inkscape:path-effect="#path-effect916">
	<path
   d="m 2688.8132,47.941 c -10.6,-1.915 -44.974,-4.226 -53.619,-1.335 -0.923,1.061 -1.077,2.58 -1.894,3.731 -2.734,4.037 -7.898,4.373 -9.826,50.88 29.341,-9.166 34.84,-9.428 66.421,6.728 -31.327,-11.063 -34.631,-11.554 -59.16,-6.116 -5.082,0.512 -10.285,-0.47 -15.293,0.929 -6.839,0.992 -12.976,4.295 -19.477,6.433 -34.462,12.183 -58.39,57.465 -63.656,80.321 -3.646,18.244 0.543,32.182 -1.34,41.54 -3.616,15.094 0.578,14.821 6.348,29.023 1.959,4.978 7.433,1.926 14.227,2.412 1.968,0.201 3.799,0.987 5.694,1.472 3.947,1.008 8.026,1.24 12.047,1.752 -12.194,-10.06 -10.416,-10.347 -32.58,-11.857 -1.704,-5.198 -4.248,-10.438 -3.952,-16.026 -0.032,-2.871 2.638,-4.987 2.322,-7.9 0.095,-2.512 -0.976,-4.855 -1.288,-7.303 1.797,-33.512 1.463,-28.577 3.15,-31.609 16.938,-28.211 12.543,-31.28 20.169,-43.688 9.516,-15.318 41.757,-32.014 58.342,-39.234 -25.683,16.154 -27.047,18.389 -48.664,55.862 35.758,-5.361 20.623,-1.777 58.854,-2.332 2.127,-2.142 3.831,-4.707 5.794,-7.008 18.209,-22.863 14.815,-24.467 45.53,-40.791 4.837,3.309 22.433,9.236 26.833,10.659 -5.43,8.322 -10.733,16.744 -16.67,24.723 -6.306,8.871 -14.559,16.19 -20.548,25.308 -7.747,11.717 -14.746,15.742 -13.039,22.77 7.291,33.375 10.582,22.627 15.578,30.807 2.691,3.419 4.269,8.042 8.401,10.053 6.448,2.881 14.042,3.546 19.546,8.311 4.683,3.63 11.885,27.514 19.308,33.54 8.196,7.029 11.914,-12.992 24.432,-26.116 -0.945,1.794 -2.443,3.361 -3.377,5.219 5.186,-4.275 8.266,-5.758 14.997,-14.628 1.633,-2.539 8.627,-1.156 11.562,6.295 3.676,9.527 6.407,31.225 -6.401,47.429 -2.406,3.061 -5.757,5.15 -8.559,7.81 -13.402,13.355 -10.383,12.383 -25.704,13.071 1.156,2.232 3.921,2.485 6.137,2.185 13.254,-1.731 12.425,-9.071 19.984,-13.33 3.332,-1.916 18.052,-7.288 18.475,-38.39 0.102,-6.149 -0.32,-20.11 -4.686,-24.675 6.763,-6.763 13.973,-68.312 -16.533,-101.766 -6.923,-7.757 -14.87,-14.554 -23.303,-20.617 -1.541,-1.23 -3.478,-2.158 -4.353,-4.037 -9.051,-16.149 -15.493,-26.209 -8.865,-44.896 1.868,-3.456 6.016,-5.62 6.506,-9.773 1.717,-10.831 -16.44,-13.68 -27.87,-15.836 m 8.797,41.619 c 0.491,6.802 1.082,13.593 1.646,20.39 -3.673,-1.393 -7.404,-2.612 -11.124,-3.857 3.066,-5.562 6.159,-11.113 9.478,-16.533 z"
   id="path2"
   inkscape:connector-curvature="0"
   style="fill:#020202"
   inkscape:original-d="m 343.795,47.941 c 10.6,-1.915 44.974,-4.226 53.619,-1.335 0.923,1.061 1.077,2.58 1.894,3.731 2.734,4.037 7.898,4.373 9.826,50.88 -29.341,-9.166 -34.84,-9.428 -66.421,6.728 31.327,-11.063 34.631,-11.554 59.16,-6.116 5.082,0.512 10.285,-0.47 15.293,0.929 6.839,0.992 12.976,4.295 19.477,6.433 34.462,12.183 58.39,57.465 63.656,80.321 3.646,18.244 -0.543,32.182 1.34,41.54 3.616,15.094 -0.578,14.821 -6.348,29.023 -1.959,4.978 -7.433,1.926 -14.227,2.412 -1.968,0.201 -3.799,0.987 -5.694,1.472 -3.947,1.008 -8.026,1.24 -12.047,1.752 12.194,-10.06 10.416,-10.347 32.58,-11.857 1.704,-5.198 4.248,-10.438 3.952,-16.026 0.032,-2.871 -2.638,-4.987 -2.322,-7.9 -0.095,-2.512 0.976,-4.855 1.288,-7.303 -1.797,-33.512 -1.463,-28.577 -3.15,-31.609 -16.938,-28.211 -12.543,-31.28 -20.169,-43.688 -9.516,-15.318 -41.757,-32.014 -58.342,-39.234 25.683,16.154 27.047,18.389 48.664,55.862 -35.758,-5.361 -20.623,-1.777 -58.854,-2.332 -2.127,-2.142 -3.831,-4.707 -5.794,-7.008 -18.209,-22.863 -14.815,-24.467 -45.53,-40.791 -4.837,3.309 -22.433,9.236 -26.833,10.659 5.43,8.322 10.733,16.744 16.67,24.723 6.306,8.871 14.559,16.19 20.548,25.308 7.747,11.717 14.746,15.742 13.039,22.77 -7.291,33.375 -10.582,22.627 -15.578,30.807 -2.691,3.419 -4.269,8.042 -8.401,10.053 -6.448,2.881 -14.042,3.546 -19.546,8.311 -4.683,3.63 -11.885,27.514 -19.308,33.54 -8.196,7.029 -11.914,-12.992 -24.432,-26.116 0.945,1.794 2.443,3.361 3.377,5.219 -5.186,-4.275 -8.266,-5.758 -14.997,-14.628 -1.633,-2.539 -8.627,-1.156 -11.562,6.295 -3.676,9.527 -6.407,31.225 6.401,47.429 2.406,3.061 5.757,5.15 8.559,7.81 13.402,13.355 10.383,12.383 25.704,13.071 -1.156,2.232 -3.921,2.485 -6.137,2.185 -13.254,-1.731 -12.425,-9.071 -19.984,-13.33 -3.332,-1.916 -18.052,-7.288 -18.475,-38.39 -0.102,-6.149 0.32,-20.11 4.686,-24.675 -6.763,-6.763 -13.973,-68.312 16.533,-101.766 6.923,-7.757 14.87,-14.554 23.303,-20.617 1.541,-1.23 3.478,-2.158 4.353,-4.037 9.051,-16.149 15.493,-26.209 8.865,-44.896 -1.868,-3.456 -6.016,-5.62 -6.506,-9.773 -1.717,-10.831 16.44,-13.68 27.87,-15.836 m -8.797,41.619 c -0.491,6.802 -1.082,13.593 -1.646,20.39 3.673,-1.393 7.404,-2.612 11.124,-3.857 -3.066,-5.562 -6.159,-11.113 -9.478,-16.533 z" />
	<path
   d="m 1517.0652,126.847 c -0.973,2.189 -4.081,31.415 16.285,56.949 116.984,141.6 670.246,547.156 720.041,571.341 -8.955,-9.488 -157.751,-117.273 -254.038,-189.284 -111.53,-84.954 -233.216,-182.036 -333.187,-265.758 -134.466,-112.982 -137.554,-125.994 -144.821,-147 -2.512,-8.538 -3.241,-17.446 -4.28,-26.248 z"
   id="path4"
   inkscape:connector-curvature="0"
   style="fill:#020202"
   inkscape:original-d="m 1515.543,126.847 c 0.973,2.189 4.081,31.415 -16.285,56.949 -116.984,141.6 -670.246,547.156 -720.041,571.341 8.955,-9.488 157.751,-117.273 254.038,-189.284 111.53,-84.954 233.216,-182.036 333.187,-265.758 134.466,-112.982 137.554,-125.994 144.821,-147 2.512,-8.538 3.241,-17.446 4.28,-26.248 z" />
	<path
   d="m 1519.4032,129.296 c 5.342,7.105 127.13,126.356 260.27,235.658 80.815,67.043 400.131,313.351 493.77,363.92 -2.962,7.995 -2.42,10.917 -13.483,25.841 -0.887,1.599 -2.491,3.525 -1.668,5.419 2.261,1.085 12.009,-3.242 18.158,-14.818 5.278,-9.459 2.628,-24.424 -0.232,-21.414 -1.219,1.082 -1.72,2.691 -2.348,4.158 -436.556,-313.388 -591.193,-454.125 -715.313,-565.183 -6.331,-5.628 -32.413,-29.264 -39.154,-33.581 z"
   id="path6"
   inkscape:connector-curvature="0"
   style="fill:#020202"
   inkscape:original-d="m 1513.205,129.296 c -5.342,7.105 -127.13,126.356 -260.27,235.658 -80.815,67.043 -400.131,313.351 -493.77,363.92 2.962,7.995 2.42,10.917 13.483,25.841 0.887,1.599 2.491,3.525 1.668,5.419 -2.261,1.085 -12.009,-3.242 -18.158,-14.818 -5.278,-9.459 -2.628,-24.424 0.232,-21.414 1.219,1.082 1.72,2.691 2.348,4.158 436.556,-313.388 591.193,-454.125 715.313,-565.183 6.331,-5.628 32.413,-29.264 39.154,-33.581 z" />
	<path
   d="m 2583.7072,236.988 c -4.756,7.5 -3.849,10.589 -5.293,14.559 -2.284,6.894 -3.356,9.781 6.385,24.042 -8.478,-19.436 -5.478,-13.232 -1.092,-38.601 z"
   id="path8"
   inkscape:connector-curvature="0"
   style="fill:#020202"
   inkscape:original-d="m 448.901,236.988 c 4.756,7.5 3.849,10.589 5.293,14.559 2.284,6.894 3.356,9.781 -6.385,24.042 8.478,-19.436 5.478,-13.232 1.092,-38.601 z" />
	<path
   d="m 2609.6592,256.186 c -2.074,0.654 -4.29,0.649 -6.348,1.383 -2.191,1.187 -7.101,7.342 -7.63,8.132 47.71,-8.332 36.047,-10.563 60.638,-3.24 -29.592,-23.526 -31.543,-11.005 -46.66,-6.275 z"
   id="path10"
   inkscape:connector-curvature="0"
   style="fill:#020202"
   inkscape:original-d="m 422.949,256.186 c 2.074,0.654 4.29,0.649 6.348,1.383 2.191,1.187 7.101,7.342 7.63,8.132 -47.71,-8.332 -36.047,-10.563 -60.638,-3.24 29.592,-23.526 31.543,-11.005 46.66,-6.275 z" />
	<path
   d="m 2759.3352,265.399 c -1.662,-6.069 -8.132,-8.48 -13.219,-11.013 2.707,2.269 5.04,5.103 8.332,6.554 4.67,2.209 2.975,10.906 1.968,15.979 -2.436,11.293 -6.499,11.567 -15.504,14.158 -0.823,0.712 -1.061,1.942 -1.583,2.902 5.384,-6.116 12.471,-2.17 15.799,-9.25 2.877,-5.99 4.307,-12.697 4.207,-19.33 z"
   id="path12"
   inkscape:connector-curvature="0"
   style="fill:#020202"
   inkscape:original-d="m 273.273,265.399 c 1.662,-6.069 8.132,-8.48 13.219,-11.013 -2.707,2.269 -5.04,5.103 -8.332,6.554 -4.67,2.209 -2.975,10.906 -1.968,15.979 2.436,11.293 6.499,11.567 15.504,14.158 0.823,0.712 1.061,1.942 1.583,2.902 -5.384,-6.116 -12.471,-2.17 -15.799,-9.25 -2.877,-5.99 -4.307,-12.697 -4.207,-19.33 z" />
	<path
   d="m 2737.5142,268.444 c -0.343,2.063 1.536,3.53 2.765,4.844 0.021,-1.504 -2.142,-3.219 -0.544,-4.543 1.979,-0.966 4.258,-0.142 6.332,-0.095 -6.104,-4.151 -8.806,-2.427 -8.553,-0.206 z"
   id="path14"
   inkscape:connector-curvature="0"
   style="fill:#020202"
   inkscape:original-d="m 295.094,268.444 c 0.343,2.063 -1.536,3.53 -2.765,4.844 -0.021,-1.504 2.142,-3.219 0.544,-4.543 -1.979,-0.966 -4.258,-0.142 -6.332,-0.095 6.104,-4.151 8.806,-2.427 8.553,-0.206 z" />
	<path
   d="m 2610.3552,278.549 c 0.227,3.14 0.475,6.301 1.198,9.372 l 0.902,-0.501 c -0.396,-2.306 -0.375,-4.654 -0.106,-6.966 0.76,3.636 4.908,6.068 8.385,4.496 4.01,-1.572 6.193,-8.726 -1.193,-11.63 17.304,0.349 8.885,1.128 31.688,4.929 0.116,-0.185 0.338,-0.549 0.449,-0.733 -23.251,-8.738 -42.215,-8.691 -41.323,1.033 z"
   id="path16"
   inkscape:connector-curvature="0"
   style="fill:#020202"
   inkscape:original-d="m 422.253,278.549 c -0.227,3.14 -0.475,6.301 -1.198,9.372 l -0.902,-0.501 c 0.396,-2.306 0.375,-4.654 0.106,-6.966 -0.76,3.636 -4.908,6.068 -8.385,4.496 -4.01,-1.572 -6.193,-8.726 1.193,-11.63 -17.304,0.349 -8.885,1.128 -31.688,4.929 -0.116,-0.185 -0.338,-0.549 -0.449,-0.733 23.251,-8.738 42.215,-8.691 41.323,1.033 z" />
	<path
   d="m 2740.9652,273.357 c -0.01,3.968 -5.098,5.04 -5.277,8.897 -0.216,3.409 0.348,7.551 3.514,9.53 -1.008,-3.356 -1.879,-6.744 -2.005,-10.269 5.078,-5.22 3.564,-4.999 3.768,-8.158 z"
   id="path18"
   inkscape:connector-curvature="0"
   style="fill:#020202"
   inkscape:original-d="m 291.643,273.357 c 0.005,3.968 5.098,5.04 5.277,8.897 0.216,3.409 -0.348,7.551 -3.514,9.53 1.008,-3.356 1.879,-6.744 2.005,-10.269 -5.078,-5.22 -3.564,-4.999 -3.768,-8.158 z" />
	<path
   d="m 2542.1142,277.668 c 0.117,0.791 0.01,1.159 6.902,0.412 -3.451,1.984 -3.573,7.493 -0.348,9.752 2.623,2.121 6.944,1.409 8.691,-1.483 1.926,-2.77 0.897,-7.024 -2.127,-8.559 6.782,-0.199 5.472,0.058 17.636,7.873 1.33,-0.201 -0.111,-1.156 -0.433,-1.588 -13.844,-12.987 -18.207,-9.068 -30.321,-6.407 z"
   id="path20"
   inkscape:connector-curvature="0"
   style="fill:#020202"
   inkscape:original-d="m 490.494,277.668 c -0.117,0.791 -0.007,1.159 -6.902,0.412 3.451,1.984 3.573,7.493 0.348,9.752 -2.623,2.121 -6.944,1.409 -8.691,-1.483 -1.926,-2.77 -0.897,-7.024 2.127,-8.559 -6.782,-0.199 -5.472,0.058 -17.636,7.873 -1.33,-0.201 0.111,-1.156 0.433,-1.588 13.844,-12.987 18.207,-9.068 30.321,-6.407 z" />
	<path
   d="m 2639.3372,278.333 c -7.927,4.497 -9.284,7.285 -26.723,8.818 1.669,0.493 12.777,1.199 17.33,-1.04 3.583,-1.979 6.575,-4.849 9.393,-7.778 z"
   id="path22"
   inkscape:connector-curvature="0"
   style="fill:#020202"
   inkscape:original-d="m 393.271,278.333 c 7.927,4.497 9.284,7.285 26.723,8.818 -1.669,0.493 -12.777,1.199 -17.33,-1.04 -3.583,-1.979 -6.575,-4.849 -9.393,-7.778 z" />
	<path
   d="m 2577.9922,284.75 c 1.367,5.71 3.113,11.62 2.011,17.53 -0.724,3.221 -8.906,27.726 -10.39,35.319 -2.353,12.645 -5.196,16.091 14.744,19.451 -7.78,-10.255 -8.302,-3.42 -12.496,-5.446 -12.202,-7.234 20.868,-44.784 6.131,-66.854 z"
   id="path24"
   inkscape:connector-curvature="0"
   style="fill:#020202"
   inkscape:original-d="m 454.616,284.75 c -1.367,5.71 -3.113,11.62 -2.011,17.53 0.724,3.221 8.906,27.726 10.39,35.319 2.353,12.645 5.196,16.091 -14.744,19.451 7.78,-10.255 8.302,-3.42 12.496,-5.446 12.202,-7.234 -20.868,-44.784 -6.131,-66.854 z" />
	<path
   d="m 2570.3882,284.676 c -15.83,6.727 -16.589,3.984 -25.308,5.245 6.673,1.84 18.199,1.632 25.308,-5.245 z"
   id="path26"
   inkscape:connector-curvature="0"
   style="fill:#020202"
   inkscape:original-d="m 462.22,284.676 c 15.83,6.727 16.589,3.984 25.308,5.245 -6.673,1.84 -18.199,1.632 -25.308,-5.245 z" />
	<path
   d="m 2545.4652,295.789 c 0.064,15.717 3.045,40.991 12.063,54.363 8.339,12.854 3.544,2.934 16.264,27.704 -0.997,-3.667 -2.042,-7.319 -2.908,-11.029 -2.048,-8.868 -11.52,-18.17 -14.084,-22.828 -2.876,-4.981 -3.609,-10.797 -4.501,-16.38 -1.373,-10.785 -4.539,-21.223 -6.834,-31.83 z"
   id="path28"
   inkscape:connector-curvature="0"
   style="fill:#020202"
   inkscape:original-d="m 487.143,295.789 c -0.064,15.717 -3.045,40.991 -12.063,54.363 -8.339,12.854 -3.544,2.934 -16.264,27.704 0.997,-3.667 2.042,-7.319 2.908,-11.029 2.048,-8.868 11.52,-18.17 14.084,-22.828 2.876,-4.981 3.609,-10.797 4.501,-16.38 1.373,-10.785 4.539,-21.223 6.834,-31.83 z" />
	<path
   d="m 2738.3322,296.312 c -1.372,3.33 -3.989,5.852 -5.778,8.913 2.834,-2.243 5.145,-5.262 5.778,-8.913 z"
   id="path30"
   inkscape:connector-curvature="0"
   style="fill:#020202"
   inkscape:original-d="m 294.276,296.312 c 1.372,3.33 3.989,5.852 5.778,8.913 -2.834,-2.243 -5.145,-5.262 -5.778,-8.913 z" />
	<path
   d="m 2747.8042,310.892 c -3.642,0.108 -7.628,23.745 -3.383,35.551 3.765,10.582 10.393,19.163 12.707,18.427 1.957,-3.071 -3.394,-14.358 -5.266,-24.29 -1.445,-10.225 -0.76,-27.17 -4.058,-29.688 z"
   id="path32"
   inkscape:connector-curvature="0"
   style="fill:#020202"
   inkscape:original-d="m 284.804,310.892 c 3.642,0.108 7.628,23.745 3.383,35.551 -3.765,10.582 -10.393,19.163 -12.707,18.427 -1.957,-3.071 3.394,-14.358 5.266,-24.29 1.445,-10.225 0.76,-27.17 4.058,-29.688 z" />
	<path
   d="m 2719.0552,317.546 c -11.016,25.358 8.438,43.368 -67.323,96.959 -4.522,3.557 -9.187,7.261 -14.797,8.913 -10.469,2.507 -21.599,2.359 -31.994,-0.475 -16.195,-4.809 -16.281,-10.267 -18.158,-18.865 -0.892,-6.681 -5.71,-11.847 -9.995,-16.696 1.851,5.643 6.865,18.905 7.414,24.052 0.047,2.839 2.443,4.718 4.084,6.754 -15.998,3.328 -16.136,6.138 -31.377,4.95 -12.305,-0.989 -18.612,4.534 -29.92,11.731 -3.203,2.185 -6.543,4.174 -9.625,6.538 -16.173,-3.891 -44.331,-1.097 -56.796,8.375 -9.168,6.207 -10.616,17.196 -14.749,24.738 -8.322,13.08 -27.844,27.191 -38.253,36.728 -0.929,0.923 -1.968,1.836 -2.359,3.15 4.678,-0.853 30.667,-14.923 45.535,-32.802 11.162,-13.582 3.037,-24.81 31.551,-31.298 29.627,-5.815 41.769,-0.256 50.949,5.409 17.416,10.347 18.662,12.024 21.593,12.396 -2.334,-5.294 -21.306,-21.561 -31.298,-24.833 14.001,-4.304 20.086,-10.583 28.67,-11.393 6.896,-0.132 22.073,2.332 38.274,-11.641 2.053,1.942 4.417,3.53 6.865,4.923 -26.314,25.213 -61.86,92.234 -56.305,109.354 0.232,0.016 0.691,0.047 0.918,0.063 2.288,9.485 14.094,26.877 16.902,41.63 1.882,10.126 5.099,70.838 10.095,75.001 -42.77,73.098 -44.802,78.37 -56.696,101.639 -6.649,-2.401 -13.852,-3.694 -19.746,-7.815 -33.385,-24.221 -21.697,0.799 -86.948,-34.464 -10.966,-5.493 -23.303,-7.63 -35.472,-8.2 -3.884,-0.723 -7.388,1.499 -11.029,2.464 3.129,-5.108 6.195,-10.253 9.309,-15.372 6.991,-10.604 5.645,-51.01 11.33,-64.659 0.591,0.744 1.704,1.398 1.499,2.496 -0.915,8.077 4.247,14.196 10.749,16.86 0.1,-3.013 -3.193,-4.86 -3.53,-7.82 -0.311,-2.359 -1.346,-4.58 -1.462,-6.95 1.23,-5.499 3.573,-10.659 5.778,-15.815 9.529,-19.729 14.565,-11.994 10.185,-34.305 7.379,15.275 25.268,-0.897 38.416,-5.013 28.626,-10.428 26.198,-7.647 55.904,-25.968 6.964,0.314 17.526,1.304 21.952,-0.164 -1.972,-2.668 -20.801,-5.297 -24.047,-5.731 -0.243,0.081 -24.385,12.362 -34.68,15.952 -28.334,10.456 -19.429,5.163 -39.91,16.57 -2.327,1.256 -4.702,2.549 -7.314,3.124 -2.29,0.602 -4.865,-1.646 -4.507,-3.968 3.092,-6.636 9.788,-19.626 9.034,-22.781 -3.584,2.164 -12.094,16.069 -15.44,21.419 -1.145,-12.976 -2.433,-26.179 0.259,-39.06 7.515,-4.441 22.294,-12.145 30.664,-11.53 -0.1,-0.343 -0.306,-1.024 -0.412,-1.367 0.723,0.496 1.441,0.992 2.143,1.488 -0.422,-0.026 -1.272,-0.074 -1.699,-0.1 -2.686,7.837 -9.288,15.467 -8.491,18.944 5.298,-0.612 25.66,-19.656 12.253,-27.245 -3.852,-0.554 -7.936,-0.945 -11.694,0.354 -7.9,2.317 -15.694,5.968 -21.562,11.873 0.122,-4.037 1.837,-8.179 0.644,-12.148 -4.702,4.545 -16.797,37.163 -9.177,71.804 2.682,14.354 -3.909,2.659 -12.929,35.577 -13.025,-6.02 -12.039,29.679 -18.533,57.709 -0.143,0.739 -9.045,27.448 -8.554,28.854 -0.336,5.708 4.376,16.405 15.841,20.343 11.202,3.894 11.805,1.544 17.15,3.504 -8.517,0.691 -17.055,-0.86 -25.599,-0.406 -26.876,1.475 -28.235,0.986 -32.29,3.013 -9.412,-15.487 -16.403,-18.714 -20.522,-21.604 -1.891,1.648 -16.195,12.859 -17.757,17.905 6.961,-1.538 17.127,-13.182 17.651,-13.71 1.166,2.237 1.958,4.749 3.773,6.58 13.631,14.971 13.361,26.167 15.071,29.889 -7.156,7.261 -12.834,15.783 -19.646,23.351 -6.248,7.272 -12.902,14.179 -19.351,21.271 0.026,0.211 0.09,0.633 0.121,0.844 -1.794,-0.771 -3.725,0.058 -5.604,-0.016 -7.644,-0.35 -7.733,3.619 -17.551,-28.179 0.997,-1.942 2.886,-3.509 3.055,-5.784 -2.332,0.982 -3.952,3.04 -5.784,4.712 -0.739,6.026 0.269,12.079 1.984,17.863 4.615,15.024 4.398,20.446 25.551,18.707 -0.211,1.736 -0.702,3.646 0.169,5.293 1.852,3.404 5.018,6.021 8.786,7.013 1.127,7.371 12.474,10.661 19.894,11.193 -0.144,4.304 4.597,9.79 7.551,10.485 2.427,0.865 4.77,2.09 7.425,1.952 0.084,2.037 0.675,4.269 2.417,5.52 10.512,6.204 22.019,2.388 32.226,-2.079 13.061,-6.2 18.298,-10.255 23.92,-23.076 1.272,-2.918 2.01,-6.074 1.952,-9.261 3.645,0.063 73.726,44.021 82.627,41.118 -1.255,-3.541 -12.229,-10.524 -15.504,-12.633 63.03,-83.888 101.066,-188.652 249.795,-395.35 26.455,-37.96 48.166,-43.859 48.944,-75.45 -0.087,-15.13 -2.353,-17.143 -3.504,-24.902 0.25,0.528 31.777,61.209 34.295,64.416 3.926,5.14 9.351,8.86 14.739,12.322 0.516,19.909 6.064,37.487 11.14,73.803 2.344,14.848 1.01,34.099 3.952,36.548 1.414,-2.095 1.757,-4.623 2.253,-7.034 8.2,-34.814 -9.915,-91.475 -14.184,-101.228 2.938,1.125 5.725,-0.474 28.453,-0.069 18.365,0.656 25.433,6.545 46.527,14.691 16.97,7.22 37.686,8.254 50.548,17.461 15.402,10.706 27.327,37.889 30.205,50.712 6.1,23.671 4.959,50.119 6.195,65.366 1.402,16.115 4.997,18.125 9.256,27.625 5.232,11.458 -15.239,27.413 -31.282,32.596 -5.747,1.826 -11.272,4.248 -16.907,6.385 -1.409,0.375 -2.179,1.752 -2.744,2.992 -0.034,3.172 0,18.471 -1.414,22.496 -5.129,8.409 -10.034,13.792 -4.317,20.791 3.177,3.609 3.551,8.644 4.047,13.213 3.201,48.634 -13.752,65.708 -73.313,140.9 -1.303,1.921 0.776,0.174 -39.683,29.588 0.232,0.67 0.449,1.361 0.665,2.053 -0.86,-0.216 -1.726,-0.427 -2.602,-0.628 0.649,-0.48 1.303,-0.96 1.931,-1.414 -9.423,-27.741 -33.7,-93.779 -47.561,-118.526 -9.115,-16.314 -21.96,-39.279 -39.319,-45.055 -1.884,-0.491 -3.836,-1.298 -5.81,-1.018 -13.01,11.033 -39.41,36.131 -58.453,49.118 -28.616,20.278 -89.784,58.016 -118.821,67.144 -6.48,2.332 -13.314,3.398 -20.11,4.348 41.059,-19.287 82.835,-57.444 115.544,-89.028 18.158,-17.481 35.078,-34.81 45.577,-60.88 5.454,-12.563 58.206,-165.429 60.701,-178.884 -0.201,-0.127 -0.602,-0.39 -0.802,-0.522 9.512,-15.073 38.018,-62.44 46.231,-78.532 1.888,28.584 10.531,63.239 12.733,80.785 2.055,14.963 -1.702,35.561 -1.266,48.527 -33.434,19.703 -27.259,33.625 -38.923,48.316 -11.788,16.641 -26.922,24.149 -9.219,42.569 0.211,4.728 -0.332,9.773 1.641,14.206 2.105,-3.061 2.032,-7.034 2.908,-10.549 1.325,1.024 2.681,2.074 4.338,2.48 -0.222,-2.533 -2.269,-4.311 -3.562,-6.353 4.427,-21.465 5.055,-17.767 16.216,-23.694 11.884,-5.852 17.065,-21.458 28.411,-35.466 12.366,-14.802 31.163,-32.056 31.841,-36.997 -4.676,0.707 -34.886,24.329 -46.221,42.221 -8.239,12.359 -11.769,19.477 -17.673,22.738 -7.892,4.463 -15.548,5.036 -17.43,24.105 -6,-10.127 2.892,-15.348 11.81,-25.419 14.564,-17.981 12.576,-26.043 22.58,-38.052 8.407,-10.622 37.288,-26.257 39.904,-31.751 -4.31,-0.273 -20.13,7.886 -24.037,10.216 2.679,-6.994 10.074,-32.753 5.91,-57.303 -1.797,-12.453 -15.033,-73.682 -19.636,-75.497 -0.248,1.092 -0.174,2.274 -0.612,3.325 -30.098,37.696 -83.31,128.7 -165.179,261.837 -70.316,120.649 -22.396,38.232 -84.199,130.526 -3.451,5.055 -1.132,3.316 -21.794,16.142 -15.41,8.942 -17.069,-4.056 -44.59,33.53 -10.619,13.719 -5.232,10.458 -21.625,23.731 -1.598,1.374 -13.985,10.054 -10.279,19.799 -1.757,2.644 -3.509,5.293 -5.282,7.937 -5.698,8.936 0.326,21.485 18.527,15.398 1.604,-0.507 2.96,-1.53 4.053,-2.776 2.385,3.979 6.237,7.287 10.876,8.179 2.507,0.485 4.95,-0.554 7.119,-1.678 -0.618,6.472 9.395,17.687 22.248,10.359 2.259,3.947 6.443,6.902 11.076,7.039 8.635,0.221 35.293,-7.967 48.764,-17.862 12.017,-8.427 16.417,-21.775 24.58,-30.279 29.202,-30.845 38.747,-14.145 122.578,-53.572 21.883,-9.706 43.532,-24.11 59.587,-37.656 0.628,5.567 2.543,10.876 4.269,16.179 8.028,21.729 15.339,33.793 34.675,47.097 0.765,1.113 0.945,2.544 1.414,3.81 0.966,0.433 1.921,0.871 2.871,1.33 14.322,-8.491 28.722,-16.855 42.991,-25.43 0.607,7.171 2.158,14.253 2.38,21.456 -4.164,0.844 -6.153,5.261 -6.617,9.092 -2.335,25.544 11.209,34.884 -14.828,52.305 -6.206,4.248 -19.634,7.692 -27.187,11.926 -2.638,1.356 -4.517,3.736 -6.665,5.726 -1.75,-6.884 -18.971,-50.155 -44.369,-103.676 -5.169,1.104 -17.707,3.348 -17.804,5.989 -6.512,1.958 -13.034,3.884 -19.551,5.831 14.77,34.643 29.635,69.244 44.353,103.909 10.299,-1.8 14.996,-2.93 24.496,-7.958 -14.821,-29.337 -24.917,-48.017 -47.756,-101.581 4.749,0.047 9.356,-1.198 13.963,-2.111 0.948,1.341 20.468,72.506 45.493,100.632 -1.335,1.314 -2.744,2.66 -3.483,4.433 3.282,-0.158 5.879,-2.454 8.691,-3.884 7.624,-5.129 24.134,-6.256 34.094,-12.364 28.283,-17.061 19.97,-31.287 18.295,-55.719 -0.259,-2.021 0.823,-4.28 -0.982,-5.931 2.078,4.443 14.047,2.095 -0.686,-29.118 3.024,-1.743 65.011,-73.341 75.286,-104.299 5.125,-16.52 9.78,-52.442 -1.578,-64.944 5.168,-12.394 7.646,-5.408 8.338,-32.659 -0.026,-0.85 0.29,-1.831 -0.422,-2.485 -0.269,-0.084 -0.813,-0.259 -1.082,-0.343 0.427,-0.491 0.855,-0.96 1.293,-1.409 0.132,0.253 0.396,0.76 0.528,1.008 0.201,0.095 0.607,0.274 0.807,0.369 3.198,-0.475 6.543,-0.243 9.594,-1.451 5.092,-1.794 10.364,-3.256 15.039,-6.026 4.146,-2.223 16.527,-10.695 22.047,-19.646 8.112,-13.799 1.457,-20.924 -2.248,-28.533 -11.192,-19.44 5.031,-76.284 -30.052,-122.99 -16.021,-21.273 -29.306,-21.563 -53.783,-28.052 -16.578,-3.972 -33.466,-13.906 -47.952,-17.008 -12.032,-2.768 -27.959,-1.21 -39.873,-0.148 -23.118,-13.522 -13.185,-8.95 -52.173,-72.289 -2.179,-3.166 -3.879,-6.702 -6.512,-9.53 0.686,2.343 1.81,4.533 3.061,6.623 0.517,0.485 -0.232,0.828 -0.549,1.135 0.179,6.361 3.991,27.122 -3.351,41.693 -7.208,13.724 -21.792,24.179 -36.728,41.825 -9.955,11.655 -32.082,42.492 -40.575,54.564 2.09,-11.746 0.565,-24.19 -4.623,-34.96 -3.353,-6.938 -15.193,-27.822 -20.469,-28.374 -0.486,2.095 0.401,4.169 0.976,6.158 8.493,23.156 12.404,20.258 18.738,51.086 0.681,3.266 1.14,6.649 2.66,9.662 -12.457,17.614 -32.905,45.853 -43.134,63.181 -0.143,-9.107 -7.632,-35.798 -11.762,-52.859 -7.545,-28.337 -5.067,-42.35 -10.691,-70.542 10.742,1.15 27.992,1.904 37.503,-3.256 6.511,-3.521 46.241,-37.866 61.213,-58.653 7.355,-11.484 8.187,-21.122 10.57,-34.279 0.576,-4.581 1.489,-9.135 1.758,-13.742 m -112.641,109.961 c -11.901,12.432 -28.756,38.271 -34.617,46.791 9.65,-17.031 22.94,-36.797 27.783,-48.347 2.237,0.717 4.633,0.749 6.834,1.556 m -1.14,7.187 c -6.445,50.51 19.194,111.698 24.654,116.974 -36.352,56.04 -32.548,51.058 -60.353,98.463 2.218,-13.118 0.977,-32.145 -0.106,-58.168 -0.734,-16.582 -4.238,-31.872 -20.781,-51.92 4.116,-6.084 5.689,-13.419 8.427,-20.137 6.496,-12.749 13.393,-25.287 20.253,-37.836 1.656,7.183 5.029,14.721 18.823,44.152 11.279,25.679 17.423,42.122 20.944,42.163 2.115,-17.104 -25.541,-77.213 -38.902,-88.041 1.171,-1.844 21.845,-33.748 27.041,-45.65 m -37.905,47.398 c -10.66,21.32 -19.14,34.528 -19.551,56.97 -1.557,-2.053 -3.208,-4.153 -5.467,-5.462 7.206,-14.402 4.953,-17.169 25.018,-51.508 m 178.525,16.533 c -16.454,31.394 -59.476,156.369 -67.55,174.673 -10.193,24.926 -30.167,48.217 -89.006,100.442 -21.112,18.993 -30.473,25.648 -41.841,33.567 46.487,-53.735 58.114,-77.258 82.131,-116.663 0.343,-0.561 82.867,-132.944 116.373,-193.284 0.125,0.426 0.468,0.864 -0.107,1.265 m 1.261,226.555 c 21.997,30.25 45.833,98.018 57.26,133.328 -20.317,-24.281 -24.07,-42.417 -33.456,-53.218 3.24,-2.786 6.987,-5.177 9.44,-8.728 -5.071,0.95 -30.185,19.143 -52.764,31.018 -113.181,53.774 -125.186,28.09 -156.852,79.613 -7.789,11.83 -9.506,17.38 -40.527,30.189 -13.89,5.442 -19.093,7.903 -26.723,1.129 18.242,-9.743 21.141,-12.723 36.548,-26.153 1.726,-1.362 2.491,-3.478 3.604,-5.282 -3.9,3.098 -8.528,5.388 -11.694,9.319 -3.733,3.889 -17.354,11.998 -22.211,14.269 -12.646,5.626 -13.412,8.179 -20.406,5.303 -1.989,-0.767 -8.103,-6.275 -0.834,-10.311 10.969,-5.981 8.155,-2.335 41.192,-24.691 2.934,-3.905 5.689,-7.952 8.559,-11.905 -11.509,11.311 -10.037,11.409 -42.997,28.105 -15.598,9.202 -18.399,10.463 -24.411,8.702 -4.715,-1.476 -8.064,-9.666 -7.119,-13.367 1.371,-3.287 5.878,-4.692 17.05,-11.409 4.716,-2.866 24.511,-21.49 34.226,-34.648 -11.698,5.214 -23.207,26.47 -38.443,34.131 -15.031,7.536 -7.561,7.123 -16.311,7.725 -4.06,-0.312 -10.666,0.886 -11.451,-10.359 2.506,-9.646 12.397,-11.177 22.359,-21.245 4.748,-4.725 18.167,-24.14 31.218,-35.815 7.125,-6.554 31.426,-5.874 47.693,-11.889 31.512,-10.428 84.124,-44.12 111.898,-64.395 43.936,-33.947 40.594,-40.824 61.566,-57.26 10.098,2.119 17.576,9.961 23.586,17.844 m -380.5,-14.348 c 6.235,0.735 16.001,0.234 30.881,5.657 4.105,1.536 7.752,4.01 11.578,6.1 -12.262,5.143 -11.86,6.654 -17.599,8.448 -1.265,-6.502 -7.184,-6.725 -19.815,-11.989 -5.282,-2.068 -8.454,-7.071 -12.802,-10.448 2.601,0.692 5.14,1.604 7.757,2.232 m 78.912,25.942 c 8.897,2.179 18.158,2.021 27.113,3.847 14.357,2.926 11.794,11.794 38.707,13.894 -4.929,9.182 -9.214,18.728 -14.818,27.53 -6.199,-0.585 -25.994,4.567 -31.572,6.185 -15.028,4.406 -2.307,-0.36 -33.06,12.279 -9.345,2.417 -18.997,3.763 -28.021,7.34 -2.712,0.802 -5.319,2.881 -8.264,1.821 -0.158,-1.916 -1.034,-3.704 -2.274,-5.14 -2.032,-2.021 -5.076,-2.01 -7.747,-2.132 1.697,-5.645 1.612,-17.038 -11.599,-13.134 2.487,-4.872 -0.056,-8.61 -5.103,-9.208 4.232,-0.227 8.723,-0.2 12.332,2.348 -7.875,-7.67 -18.821,-2.872 -29.715,1.409 -9.567,3.889 -19.351,7.272 -28.712,11.657 1.441,-2.807 2.021,-6.348 0.137,-9.092 -1.441,-2.016 -4.222,-1.646 -6.39,-1.831 3.113,-1.989 6.079,-4.179 9.024,-6.401 5.544,-3.485 19.975,-8 33.92,-22.306 -33.261,12.666 -24.199,10.071 -39.535,21.393 5.72,-6.992 11.319,-14.095 16.058,-21.799 0.364,-5.863 -1.145,-11.662 -3.488,-16.997 3.583,-0.422 7.108,0.57 10.654,0.881 6.295,0.485 12.612,0.396 18.918,0.496 17.858,0.083 27.966,3.778 40.21,-5.81 3.884,-3.071 8.153,-5.588 12.074,-8.596 10.059,4.606 20.417,8.643 31.151,11.366 m 49.645,47.45 c -6.03,10.078 -24.556,40.019 -33.44,56.796 -12.274,-8.095 -25.15,-15.208 -38.168,-22.026 -4.987,-2.982 -10.665,-4.443 -16.1,-6.39 30.199,-5.466 16.817,0.6 50.458,-13.509 12.565,-4.544 25.483,-8.433 37.25,-14.871 m -128.045,0.206 c 1.567,1.082 3.193,2.485 3.726,4.364 -2.156,11.876 -33.694,32.151 -44.173,37.308 -5.161,0.084 -21.656,-2.969 -20.712,-8.813 3.256,-5.42 7.381,-5.328 28.854,-17.82 8.684,-4.901 27.322,-18.509 32.305,-15.039 m -46.538,3.683 c 1.63,2.153 1.72,4.966 1.615,7.557 -5.08,1.265 -10.193,2.289 -12.031,-0.834 -1.996,-5.331 3.93,-8.217 6.095,-10.063 1.514,1.008 3.139,1.937 4.321,3.34 m 63.714,11.304 c -11.883,28.872 -20.242,32.553 -35.43,38.965 -10.786,4.669 -21.104,-2.796 -24.205,-6.981 4.159,-1.164 22.218,-11.34 37.667,-23.973 4.596,-3.509 7.857,-8.375 11.984,-12.364 0.264,2.016 -0.259,4.865 1.947,5.984 2.332,1.414 5.134,0.517 7.293,-0.76 -7.255,-0.772 -5.482,-0.457 -9.193,-5.398 1.124,-1.003 2.174,-2.195 3.625,-2.67 3.88,-0.814 6.639,3.793 6.312,7.197 m -78.246,-6.86 c -0.816,5.171 2.251,7.959 7.488,9.345 2.691,0.786 5.361,-0.401 7.968,-0.929 -16.137,8.015 -14.804,8.543 -17.356,8.675 -1.583,0.058 -3.594,0.596 -4.839,-0.723 -2.776,-2.211 -2.733,-6.934 -0.116,-9.219 2.306,-2.368 4.733,-4.622 6.855,-7.149 m 83.829,14.527 c 1.91,0.77 2.422,3.008 2.47,4.86 -4.252,0.948 -4.512,0.653 -8.274,-2.148 1.272,-1.804 3.504,-3.493 5.804,-2.712 m -2.939,6.85 c 1.91,0.702 3.82,-0.179 5.356,-1.266 -0.341,2.104 -1.16,11.566 -8.728,20.264 -5.08,5.483 -27.291,16.342 -36.775,14.976 -4.793,-0.911 -1.468,1.464 -7.847,-3.272 0.2,-0.892 0.369,-1.768 0.538,-2.644 6.363,-0.607 2.703,0.883 16.184,-4.19 11.118,-4.123 15.555,-6.357 24.897,-23.667 0.871,-1.652 2.491,-2.691 3.504,-4.222 0.697,1.445 1.061,3.567 2.871,4.021 m 474.615,58.521 c -1.393,0.449 -3.087,0.528 -4.026,1.836 0.084,-1.003 0.148,-1.995 0.195,-2.976 1.388,-0.079 2.649,0.491 3.831,1.14 m -416.368,29.715 c 1.715,6.844 8.492,10.928 17.583,7.351 -3.596,3.901 -3.115,7.148 -0.955,11.958 -16.244,7.024 -27.256,1.166 -16.628,-19.309 z"
   id="path34"
   inkscape:connector-curvature="0"
   style="fill:#020202"
   inkscape:original-d="m 313.553,317.546 c 11.016,25.358 -8.438,43.368 67.323,96.959 4.522,3.557 9.187,7.261 14.797,8.913 10.469,2.507 21.599,2.359 31.994,-0.475 16.195,-4.809 16.281,-10.267 18.158,-18.865 0.892,-6.681 5.71,-11.847 9.995,-16.696 -1.851,5.643 -6.865,18.905 -7.414,24.052 -0.047,2.839 -2.443,4.718 -4.084,6.754 15.998,3.328 16.136,6.138 31.377,4.95 12.305,-0.989 18.612,4.534 29.92,11.731 3.203,2.185 6.543,4.174 9.625,6.538 16.173,-3.891 44.331,-1.097 56.796,8.375 9.168,6.207 10.616,17.196 14.749,24.738 8.322,13.08 27.844,27.191 38.253,36.728 0.929,0.923 1.968,1.836 2.359,3.15 -4.678,-0.853 -30.667,-14.923 -45.535,-32.802 -11.162,-13.582 -3.037,-24.81 -31.551,-31.298 -29.627,-5.815 -41.769,-0.256 -50.949,5.409 -17.416,10.347 -18.662,12.024 -21.593,12.396 2.334,-5.294 21.306,-21.561 31.298,-24.833 -14.001,-4.304 -20.086,-10.583 -28.67,-11.393 -6.896,-0.132 -22.073,2.332 -38.274,-11.641 -2.053,1.942 -4.417,3.53 -6.865,4.923 26.314,25.213 61.86,92.234 56.305,109.354 -0.232,0.016 -0.691,0.047 -0.918,0.063 -2.288,9.485 -14.094,26.877 -16.902,41.63 -1.882,10.126 -5.099,70.838 -10.095,75.001 42.77,73.098 44.802,78.37 56.696,101.639 6.649,-2.401 13.852,-3.694 19.746,-7.815 33.385,-24.221 21.697,0.799 86.948,-34.464 10.966,-5.493 23.303,-7.63 35.472,-8.2 3.884,-0.723 7.388,1.499 11.029,2.464 -3.129,-5.108 -6.195,-10.253 -9.309,-15.372 -6.991,-10.604 -5.645,-51.01 -11.33,-64.659 -0.591,0.744 -1.704,1.398 -1.499,2.496 0.915,8.077 -4.247,14.196 -10.749,16.86 -0.1,-3.013 3.193,-4.86 3.53,-7.82 0.311,-2.359 1.346,-4.58 1.462,-6.95 -1.23,-5.499 -3.573,-10.659 -5.778,-15.815 -9.529,-19.729 -14.565,-11.994 -10.185,-34.305 -7.379,15.275 -25.268,-0.897 -38.416,-5.013 -28.626,-10.428 -26.198,-7.647 -55.904,-25.968 -6.964,0.314 -17.526,1.304 -21.952,-0.164 1.972,-2.668 20.801,-5.297 24.047,-5.731 0.243,0.081 24.385,12.362 34.68,15.952 28.334,10.456 19.429,5.163 39.91,16.57 2.327,1.256 4.702,2.549 7.314,3.124 2.29,0.602 4.865,-1.646 4.507,-3.968 -3.092,-6.636 -9.788,-19.626 -9.034,-22.781 3.584,2.164 12.094,16.069 15.44,21.419 1.145,-12.976 2.433,-26.179 -0.259,-39.06 -7.515,-4.441 -22.294,-12.145 -30.664,-11.53 0.1,-0.343 0.306,-1.024 0.412,-1.367 -0.723,0.496 -1.441,0.992 -2.143,1.488 0.422,-0.026 1.272,-0.074 1.699,-0.1 2.686,7.837 9.288,15.467 8.491,18.944 -5.298,-0.612 -25.66,-19.656 -12.253,-27.245 3.852,-0.554 7.936,-0.945 11.694,0.354 7.9,2.317 15.694,5.968 21.562,11.873 -0.122,-4.037 -1.837,-8.179 -0.644,-12.148 4.702,4.545 16.797,37.163 9.177,71.804 -2.682,14.354 3.909,2.659 12.929,35.577 13.025,-6.02 12.039,29.679 18.533,57.709 0.143,0.739 9.045,27.448 8.554,28.854 0.336,5.708 -4.376,16.405 -15.841,20.343 -11.202,3.894 -11.805,1.544 -17.15,3.504 8.517,0.691 17.055,-0.86 25.599,-0.406 26.876,1.475 28.235,0.986 32.29,3.013 9.412,-15.487 16.403,-18.714 20.522,-21.604 1.891,1.648 16.195,12.859 17.757,17.905 -6.961,-1.538 -17.127,-13.182 -17.651,-13.71 -1.166,2.237 -1.958,4.749 -3.773,6.58 -13.631,14.971 -13.361,26.167 -15.071,29.889 7.156,7.261 12.834,15.783 19.646,23.351 6.248,7.272 12.902,14.179 19.351,21.271 -0.026,0.211 -0.09,0.633 -0.121,0.844 1.794,-0.771 3.725,0.058 5.604,-0.016 7.644,-0.35 7.733,3.619 17.551,-28.179 -0.997,-1.942 -2.886,-3.509 -3.055,-5.784 2.332,0.982 3.952,3.04 5.784,4.712 0.739,6.026 -0.269,12.079 -1.984,17.863 -4.615,15.024 -4.398,20.446 -25.551,18.707 0.211,1.736 0.702,3.646 -0.169,5.293 -1.852,3.404 -5.018,6.021 -8.786,7.013 -1.127,7.371 -12.474,10.661 -19.894,11.193 0.144,4.304 -4.597,9.79 -7.551,10.485 -2.427,0.865 -4.77,2.09 -7.425,1.952 -0.084,2.037 -0.675,4.269 -2.417,5.52 -10.512,6.204 -22.019,2.388 -32.226,-2.079 -13.061,-6.2 -18.298,-10.255 -23.92,-23.076 -1.272,-2.918 -2.01,-6.074 -1.952,-9.261 -3.645,0.063 -73.726,44.021 -82.627,41.118 1.255,-3.541 12.229,-10.524 15.504,-12.633 -63.03,-83.888 -101.066,-188.652 -249.795,-395.35 -26.455,-37.96 -48.166,-43.859 -48.944,-75.45 0.087,-15.13 2.353,-17.143 3.504,-24.902 -0.25,0.528 -31.777,61.209 -34.295,64.416 -3.926,5.14 -9.351,8.86 -14.739,12.322 -0.516,19.909 -6.064,37.487 -11.14,73.803 -2.344,14.848 -1.01,34.099 -3.952,36.548 -1.414,-2.095 -1.757,-4.623 -2.253,-7.034 -8.2,-34.814 9.915,-91.475 14.184,-101.228 -2.938,1.125 -5.725,-0.474 -28.453,-0.069 -18.365,0.656 -25.433,6.545 -46.527,14.691 -16.97,7.22 -37.686,8.254 -50.548,17.461 -15.402,10.706 -27.327,37.889 -30.205,50.712 -6.1,23.671 -4.959,50.119 -6.195,65.366 -1.402,16.115 -4.997,18.125 -9.256,27.625 -5.232,11.458 15.239,27.413 31.282,32.596 5.747,1.826 11.272,4.248 16.907,6.385 1.409,0.375 2.179,1.752 2.744,2.992 0.034,3.172 -0.003,18.471 1.414,22.496 5.129,8.409 10.034,13.792 4.317,20.791 -3.177,3.609 -3.551,8.644 -4.047,13.213 -3.201,48.634 13.752,65.708 73.313,140.9 1.303,1.921 -0.776,0.174 39.683,29.588 -0.232,0.67 -0.449,1.361 -0.665,2.053 0.86,-0.216 1.726,-0.427 2.602,-0.628 -0.649,-0.48 -1.303,-0.96 -1.931,-1.414 9.423,-27.741 33.7,-93.779 47.561,-118.526 9.115,-16.314 21.96,-39.279 39.319,-45.055 1.884,-0.491 3.836,-1.298 5.81,-1.018 13.01,11.033 39.41,36.131 58.453,49.118 28.616,20.278 89.784,58.016 118.821,67.144 6.48,2.332 13.314,3.398 20.11,4.348 -41.059,-19.287 -82.835,-57.444 -115.544,-89.028 -18.158,-17.481 -35.078,-34.81 -45.577,-60.88 -5.454,-12.563 -58.206,-165.429 -60.701,-178.884 0.201,-0.127 0.602,-0.39 0.802,-0.522 -9.512,-15.073 -38.018,-62.44 -46.231,-78.532 -1.888,28.584 -10.531,63.239 -12.733,80.785 -2.055,14.963 1.702,35.561 1.266,48.527 33.434,19.703 27.259,33.625 38.923,48.316 11.788,16.641 26.922,24.149 9.219,42.569 -0.211,4.728 0.332,9.773 -1.641,14.206 -2.105,-3.061 -2.032,-7.034 -2.908,-10.549 -1.325,1.024 -2.681,2.074 -4.338,2.48 0.222,-2.533 2.269,-4.311 3.562,-6.353 -4.427,-21.465 -5.055,-17.767 -16.216,-23.694 -11.884,-5.852 -17.065,-21.458 -28.411,-35.466 -12.366,-14.802 -31.163,-32.056 -31.841,-36.997 4.676,0.707 34.886,24.329 46.221,42.221 8.239,12.359 11.769,19.477 17.673,22.738 7.892,4.463 15.548,5.036 17.43,24.105 6,-10.127 -2.892,-15.348 -11.81,-25.419 -14.564,-17.981 -12.576,-26.043 -22.58,-38.052 -8.407,-10.622 -37.288,-26.257 -39.904,-31.751 4.31,-0.273 20.13,7.886 24.037,10.216 -2.679,-6.994 -10.074,-32.753 -5.91,-57.303 1.797,-12.453 15.033,-73.682 19.636,-75.497 0.248,1.092 0.174,2.274 0.612,3.325 30.098,37.696 83.31,128.7 165.179,261.837 70.316,120.649 22.396,38.232 84.199,130.526 3.451,5.055 1.132,3.316 21.794,16.142 15.41,8.942 17.069,-4.056 44.59,33.53 10.619,13.719 5.232,10.458 21.625,23.731 1.598,1.374 13.985,10.054 10.279,19.799 1.757,2.644 3.509,5.293 5.282,7.937 5.698,8.936 -0.326,21.485 -18.527,15.398 -1.604,-0.507 -2.96,-1.53 -4.053,-2.776 -2.385,3.979 -6.237,7.287 -10.876,8.179 -2.507,0.485 -4.95,-0.554 -7.119,-1.678 0.618,6.472 -9.395,17.687 -22.248,10.359 -2.259,3.947 -6.443,6.902 -11.076,7.039 -8.635,0.221 -35.293,-7.967 -48.764,-17.862 -12.017,-8.427 -16.417,-21.775 -24.58,-30.279 -29.202,-30.845 -38.747,-14.145 -122.578,-53.572 -21.883,-9.706 -43.532,-24.11 -59.587,-37.656 -0.628,5.567 -2.543,10.876 -4.269,16.179 -8.028,21.729 -15.339,33.793 -34.675,47.097 -0.765,1.113 -0.945,2.544 -1.414,3.81 -0.966,0.433 -1.921,0.871 -2.871,1.33 -14.322,-8.491 -28.722,-16.855 -42.991,-25.43 -0.607,7.171 -2.158,14.253 -2.38,21.456 4.164,0.844 6.153,5.261 6.617,9.092 2.335,25.544 -11.209,34.884 14.828,52.305 6.206,4.248 19.634,7.692 27.187,11.926 2.638,1.356 4.517,3.736 6.665,5.726 1.75,-6.884 18.971,-50.155 44.369,-103.676 5.169,1.104 17.707,3.348 17.804,5.989 6.512,1.958 13.034,3.884 19.551,5.831 -14.77,34.643 -29.635,69.244 -44.353,103.909 -10.299,-1.8 -14.996,-2.93 -24.496,-7.958 14.821,-29.337 24.917,-48.017 47.756,-101.581 -4.749,0.047 -9.356,-1.198 -13.963,-2.111 -0.948,1.341 -20.468,72.506 -45.493,100.632 1.335,1.314 2.744,2.66 3.483,4.433 -3.282,-0.158 -5.879,-2.454 -8.691,-3.884 -7.624,-5.129 -24.134,-6.256 -34.094,-12.364 -28.283,-17.061 -19.97,-31.287 -18.295,-55.719 0.259,-2.021 -0.823,-4.28 0.982,-5.931 -2.078,4.443 -14.047,2.095 0.686,-29.118 -3.024,-1.743 -65.011,-73.341 -75.286,-104.299 -5.125,-16.52 -9.78,-52.442 1.578,-64.944 -5.168,-12.394 -7.646,-5.408 -8.338,-32.659 0.026,-0.85 -0.29,-1.831 0.422,-2.485 0.269,-0.084 0.813,-0.259 1.082,-0.343 -0.427,-0.491 -0.855,-0.96 -1.293,-1.409 -0.132,0.253 -0.396,0.76 -0.528,1.008 -0.201,0.095 -0.607,0.274 -0.807,0.369 -3.198,-0.475 -6.543,-0.243 -9.594,-1.451 -5.092,-1.794 -10.364,-3.256 -15.039,-6.026 -4.146,-2.223 -16.527,-10.695 -22.047,-19.646 -8.112,-13.799 -1.457,-20.924 2.248,-28.533 11.192,-19.44 -5.031,-76.284 30.052,-122.99 16.021,-21.273 29.306,-21.563 53.783,-28.052 16.578,-3.972 33.466,-13.906 47.952,-17.008 12.032,-2.768 27.959,-1.21 39.873,-0.148 23.118,-13.522 13.185,-8.95 52.173,-72.289 2.179,-3.166 3.879,-6.702 6.512,-9.53 -0.686,2.343 -1.81,4.533 -3.061,6.623 -0.517,0.485 0.232,0.828 0.549,1.135 -0.179,6.361 -3.991,27.122 3.351,41.693 7.208,13.724 21.792,24.179 36.728,41.825 9.955,11.655 32.082,42.492 40.575,54.564 -2.09,-11.746 -0.565,-24.19 4.623,-34.96 3.353,-6.938 15.193,-27.822 20.469,-28.374 0.486,2.095 -0.401,4.169 -0.976,6.158 -8.493,23.156 -12.404,20.258 -18.738,51.086 -0.681,3.266 -1.14,6.649 -2.66,9.662 12.457,17.614 32.905,45.853 43.134,63.181 0.143,-9.107 7.632,-35.798 11.762,-52.859 7.545,-28.337 5.067,-42.35 10.691,-70.542 -10.742,1.15 -27.992,1.904 -37.503,-3.256 -6.511,-3.521 -46.241,-37.866 -61.213,-58.653 -7.355,-11.484 -8.187,-21.122 -10.57,-34.279 -0.576,-4.581 -1.489,-9.135 -1.758,-13.742 m 112.641,109.961 c 11.901,12.432 28.756,38.271 34.617,46.791 -9.65,-17.031 -22.94,-36.797 -27.783,-48.347 -2.237,0.717 -4.633,0.749 -6.834,1.556 m 1.14,7.187 c 6.445,50.51 -19.194,111.698 -24.654,116.974 36.352,56.04 32.548,51.058 60.353,98.463 -2.218,-13.118 -0.977,-32.145 0.106,-58.168 0.734,-16.582 4.238,-31.872 20.781,-51.92 -4.116,-6.084 -5.689,-13.419 -8.427,-20.137 -6.496,-12.749 -13.393,-25.287 -20.253,-37.836 -1.656,7.183 -5.029,14.721 -18.823,44.152 -11.279,25.679 -17.423,42.122 -20.944,42.163 -2.115,-17.104 25.541,-77.213 38.902,-88.041 -1.171,-1.844 -21.845,-33.748 -27.041,-45.65 m 37.905,47.398 c 10.66,21.32 19.14,34.528 19.551,56.97 1.557,-2.053 3.208,-4.153 5.467,-5.462 -7.206,-14.402 -4.953,-17.169 -25.018,-51.508 m -178.525,16.533 c 16.454,31.394 59.476,156.369 67.55,174.673 10.193,24.926 30.167,48.217 89.006,100.442 21.112,18.993 30.473,25.648 41.841,33.567 C 438.624,753.572 426.997,730.049 402.98,690.644 402.637,690.083 320.113,557.7 286.607,497.36 c -0.125,0.426 -0.468,0.864 0.107,1.265 m -1.261,226.555 c -21.997,30.25 -45.833,98.018 -57.26,133.328 20.317,-24.281 24.07,-42.417 33.456,-53.218 -3.24,-2.786 -6.987,-5.177 -9.44,-8.728 5.071,0.95 30.185,19.143 52.764,31.018 113.181,53.774 125.186,28.09 156.852,79.613 7.789,11.83 9.506,17.38 40.527,30.189 13.89,5.442 19.093,7.903 26.723,1.129 -18.242,-9.743 -21.141,-12.723 -36.548,-26.153 -1.726,-1.362 -2.491,-3.478 -3.604,-5.282 3.9,3.098 8.528,5.388 11.694,9.319 3.733,3.889 17.354,11.998 22.211,14.269 12.646,5.626 13.412,8.179 20.406,5.303 1.989,-0.767 8.103,-6.275 0.834,-10.311 -10.969,-5.981 -8.155,-2.335 -41.192,-24.691 -2.934,-3.905 -5.689,-7.952 -8.559,-11.905 11.509,11.311 10.037,11.409 42.997,28.105 15.598,9.202 18.399,10.463 24.411,8.702 4.715,-1.476 8.064,-9.666 7.119,-13.367 -1.371,-3.287 -5.878,-4.692 -17.05,-11.409 -4.716,-2.866 -24.511,-21.49 -34.226,-34.648 11.698,5.214 23.207,26.47 38.443,34.131 15.031,7.536 7.561,7.123 16.311,7.725 4.06,-0.312 10.666,0.886 11.451,-10.359 -2.506,-9.646 -12.397,-11.177 -22.359,-21.245 -4.748,-4.725 -18.167,-24.14 -31.218,-35.815 -7.125,-6.554 -31.426,-5.874 -47.693,-11.889 -31.512,-10.428 -84.124,-44.12 -111.898,-64.395 -43.936,-33.947 -40.594,-40.824 -61.566,-57.26 -10.098,2.119 -17.576,9.961 -23.586,17.844 m 380.5,-14.348 c -6.235,0.735 -16.001,0.234 -30.881,5.657 -4.105,1.536 -7.752,4.01 -11.578,6.1 12.262,5.143 11.86,6.654 17.599,8.448 1.265,-6.502 7.184,-6.725 19.815,-11.989 5.282,-2.068 8.454,-7.071 12.802,-10.448 -2.601,0.692 -5.14,1.604 -7.757,2.232 m -78.912,25.942 c -8.897,2.179 -18.158,2.021 -27.113,3.847 -14.357,2.926 -11.794,11.794 -38.707,13.894 4.929,9.182 9.214,18.728 14.818,27.53 6.199,-0.585 25.994,4.567 31.572,6.185 15.028,4.406 2.307,-0.36 33.06,12.279 9.345,2.417 18.997,3.763 28.021,7.34 2.712,0.802 5.319,2.881 8.264,1.821 0.158,-1.916 1.034,-3.704 2.274,-5.14 2.032,-2.021 5.076,-2.01 7.747,-2.132 -1.697,-5.645 -1.612,-17.038 11.599,-13.134 -2.487,-4.872 0.056,-8.61 5.103,-9.208 -4.232,-0.227 -8.723,-0.2 -12.332,2.348 7.875,-7.67 18.821,-2.872 29.715,1.409 9.567,3.889 19.351,7.272 28.712,11.657 -1.441,-2.807 -2.021,-6.348 -0.137,-9.092 1.441,-2.016 4.222,-1.646 6.39,-1.831 -3.113,-1.989 -6.079,-4.179 -9.024,-6.401 -5.544,-3.485 -19.975,-8 -33.92,-22.306 33.261,12.666 24.199,10.071 39.535,21.393 -5.72,-6.992 -11.319,-14.095 -16.058,-21.799 -0.364,-5.863 1.145,-11.662 3.488,-16.997 -3.583,-0.422 -7.108,0.57 -10.654,0.881 -6.295,0.485 -12.612,0.396 -18.918,0.496 -17.858,0.083 -27.966,3.778 -40.21,-5.81 -3.884,-3.071 -8.153,-5.588 -12.074,-8.596 -10.059,4.606 -20.417,8.643 -31.151,11.366 m -49.645,47.45 c 6.03,10.078 24.556,40.019 33.44,56.796 12.274,-8.095 25.15,-15.208 38.168,-22.026 4.987,-2.982 10.665,-4.443 16.1,-6.39 -30.199,-5.466 -16.817,0.6 -50.458,-13.509 -12.565,-4.544 -25.483,-8.433 -37.25,-14.871 m 128.045,0.206 c -1.567,1.082 -3.193,2.485 -3.726,4.364 2.156,11.876 33.694,32.151 44.173,37.308 5.161,0.084 21.656,-2.969 20.712,-8.813 -3.256,-5.42 -7.381,-5.328 -28.854,-17.82 -8.684,-4.901 -27.322,-18.509 -32.305,-15.039 m 46.538,3.683 c -1.63,2.153 -1.72,4.966 -1.615,7.557 5.08,1.265 10.193,2.289 12.031,-0.834 1.996,-5.331 -3.93,-8.217 -6.095,-10.063 -1.514,1.008 -3.139,1.937 -4.321,3.34 m -63.714,11.304 c 11.883,28.872 20.242,32.553 35.43,38.965 10.786,4.669 21.104,-2.796 24.205,-6.981 -4.159,-1.164 -22.218,-11.34 -37.667,-23.973 -4.596,-3.509 -7.857,-8.375 -11.984,-12.364 -0.264,2.016 0.259,4.865 -1.947,5.984 -2.332,1.414 -5.134,0.517 -7.293,-0.76 7.255,-0.772 5.482,-0.457 9.193,-5.398 -1.124,-1.003 -2.174,-2.195 -3.625,-2.67 -3.88,-0.814 -6.639,3.793 -6.312,7.197 m 78.246,-6.86 c 0.816,5.171 -2.251,7.959 -7.488,9.345 -2.691,0.786 -5.361,-0.401 -7.968,-0.929 16.137,8.015 14.804,8.543 17.356,8.675 1.583,0.058 3.594,0.596 4.839,-0.723 2.776,-2.211 2.733,-6.934 0.116,-9.219 -2.306,-2.368 -4.733,-4.622 -6.855,-7.149 m -83.829,14.527 c -1.91,0.77 -2.422,3.008 -2.47,4.86 4.252,0.948 4.512,0.653 8.274,-2.148 -1.272,-1.804 -3.504,-3.493 -5.804,-2.712 m 2.939,6.85 c -1.91,0.702 -3.82,-0.179 -5.356,-1.266 0.341,2.104 1.16,11.566 8.728,20.264 5.08,5.483 27.291,16.342 36.775,14.976 4.793,-0.911 1.468,1.464 7.847,-3.272 -0.2,-0.892 -0.369,-1.768 -0.538,-2.644 -6.363,-0.607 -2.703,0.883 -16.184,-4.19 -11.118,-4.123 -15.555,-6.357 -24.897,-23.667 -0.871,-1.652 -2.491,-2.691 -3.504,-4.222 -0.697,1.445 -1.061,3.567 -2.871,4.021 m -474.615,58.521 c 1.393,0.449 3.087,0.528 4.026,1.836 -0.084,-1.003 -0.148,-1.995 -0.195,-2.976 -1.388,-0.079 -2.649,0.491 -3.831,1.14 m 416.368,29.715 c -1.715,6.844 -8.492,10.928 -17.583,7.351 3.596,3.901 3.115,7.148 0.955,11.958 16.244,7.024 27.256,1.166 16.628,-19.309 z" />
	<path
   d="m 2600.8462,330.839 c 1.286,1.596 9.786,7.841 8.206,18.39 -0.839,4.697 -6.053,6.1 -9.562,8.306 16.788,-3.169 18.004,-17.247 1.356,-26.696 z"
   id="path36"
   inkscape:connector-curvature="0"
   style="fill:#020202"
   inkscape:original-d="m 431.762,330.839 c -1.286,1.596 -9.786,7.841 -8.206,18.39 0.839,4.697 6.053,6.1 9.562,8.306 -16.788,-3.169 -18.004,-17.247 -1.356,-26.696 z" />
	<path
   d="m 2592.5772,349.487 c -9.239,0.576 -5.717,8.118 5.003,7.456 1.673,-0.042 3.351,-2.005 2.084,-3.514 -0.67,-1.71 -2.575,-2.079 -4.042,-2.823 -0.976,-0.443 -1.931,-1.076 -3.045,-1.119 z"
   id="path38"
   inkscape:connector-curvature="0"
   style="fill:#020202"
   inkscape:original-d="m 440.031,349.487 c 9.239,0.576 5.717,8.118 -5.003,7.456 -1.673,-0.042 -3.351,-2.005 -2.084,-3.514 0.67,-1.71 2.575,-2.079 4.042,-2.823 0.976,-0.443 1.931,-1.076 3.045,-1.119 z" />
	<path
   d="m 2591.0582,374.12 c -0.116,-4.385 -0.338,-8.807 -1.652,-13.024 -3.201,6.699 -3.626,7.927 1.652,13.024 z"
   id="path40"
   inkscape:connector-curvature="0"
   style="fill:#020202"
   inkscape:original-d="m 441.55,374.12 c 0.116,-4.385 0.338,-8.807 1.652,-13.024 3.201,6.699 3.626,7.927 -1.652,13.024 z" />
	<path
   d="m 2599.3902,375.92 c -2.633,-0.797 -5.24,0.174 -7.52,1.467 -1.937,1.108 -3.794,-0.48 -5.604,-1.04 -2.338,-0.391 -4.443,1.04 -6.665,1.541 -2.111,0.554 -4.755,0.802 -5.868,3.008 -0.887,1.256 -0.063,2.865 0.913,3.799 1.245,1.018 2.902,1.272 4.406,1.657 21.224,3.316 22.654,-0.312 38.532,-2.623 1.704,-0.1 2.982,-1.398 3.768,-2.797 0,-5.05 -8.307,-3.655 -14.834,-3.863 -2.421,-0.02 -4.753,-0.759 -7.128,-1.149 m 20.3,4.628 c -27.17,2.982 -17.885,3.316 -44.954,1.657 7.409,-0.697 14.828,-0.106 22.242,-0.069 7.578,-0.359 15.129,-1.346 22.712,-1.588 z"
   id="path42"
   inkscape:connector-curvature="0"
   style="fill:#020202"
   inkscape:original-d="m 433.218,375.92 c 2.633,-0.797 5.24,0.174 7.52,1.467 1.937,1.108 3.794,-0.48 5.604,-1.04 2.338,-0.391 4.443,1.04 6.665,1.541 2.111,0.554 4.755,0.802 5.868,3.008 0.887,1.256 0.063,2.865 -0.913,3.799 -1.245,1.018 -2.902,1.272 -4.406,1.657 -21.224,3.316 -22.654,-0.312 -38.532,-2.623 -1.704,-0.1 -2.982,-1.398 -3.768,-2.797 0,-5.05 8.307,-3.655 14.834,-3.863 2.421,-0.02 4.753,-0.759 7.128,-1.149 m -20.3,4.628 c 27.17,2.982 17.885,3.316 44.954,1.657 -7.409,-0.697 -14.828,-0.106 -22.242,-0.069 -7.578,-0.359 -15.129,-1.346 -22.712,-1.588 z" />
	<path
   d="m 2595.0892,400.373 c -6.952,-5.489 -6.014,-4.342 -10.454,-3.551 1.156,0.792 2.623,0.311 3.91,0.412 2.169,1.715 4.406,3.356 6.913,4.543 4.918,-1.842 10.063,-3.113 14.855,-5.224 -5.303,0.031 -10.242,2.237 -15.224,3.82 z"
   id="path44"
   inkscape:connector-curvature="0"
   style="fill:#020202"
   inkscape:original-d="m 437.519,400.373 c 6.952,-5.489 6.014,-4.342 10.454,-3.551 -1.156,0.792 -2.623,0.311 -3.91,0.412 -2.169,1.715 -4.406,3.356 -6.913,4.543 -4.918,-1.842 -10.063,-3.113 -14.855,-5.224 5.303,0.031 10.242,2.237 15.224,3.82 z" />
	<path
   d="m 2907.6652,472.937 c -26.112,14.137 -15.104,6.766 -42.063,28.205 -30.075,24.342 -21.204,16.138 -26.385,18.242 -5.85,2.169 -11.109,7.552 -12.058,10.818 -0.543,3.038 6.237,-0.539 12.459,-2.686 2.945,-1.277 5.91,1.573 6.623,4.306 -3.938,6.885 -11.079,13.331 -9.921,16.469 6.111,-0.496 10.765,-5.113 14.965,-9.14 -14.574,18.818 -23.131,24.33 -41.64,41.735 -1.029,1.145 -2.401,2.121 -2.823,3.689 5.632,-1.786 23.833,-14.079 36.749,-25.868 26.893,-24.562 55.958,-72.939 64.094,-85.77 m -17.736,18.68 c -33.07,37.364 -10.268,11.26 -36.348,44.543 3.103,-6.544 -0.714,-13.093 -6.538,-16.1 15.108,-8.206 28.902,-18.517 42.886,-28.443 z"
   id="path46"
   inkscape:connector-curvature="0"
   style="fill:#020202"
   inkscape:original-d="m 124.943,472.937 c 26.112,14.137 15.104,6.766 42.063,28.205 30.075,24.342 21.204,16.138 26.385,18.242 5.85,2.169 11.109,7.552 12.058,10.818 0.543,3.038 -6.237,-0.539 -12.459,-2.686 -2.945,-1.277 -5.91,1.573 -6.623,4.306 3.938,6.885 11.079,13.331 9.921,16.469 -6.111,-0.496 -10.765,-5.113 -14.965,-9.14 14.574,18.818 23.131,24.33 41.64,41.735 1.029,1.145 2.401,2.121 2.823,3.689 -5.632,-1.786 -23.833,-14.079 -36.749,-25.868 -26.893,-24.562 -55.958,-72.939 -64.094,-85.77 m 17.736,18.68 c 33.07,37.364 10.268,11.26 36.348,44.543 -3.103,-6.544 0.714,-13.093 6.538,-16.1 -15.108,-8.206 -28.902,-18.517 -42.886,-28.443 z" />
	<path
   d="m 2556.4882,477.517 c -13.2,-3.773 -77.064,-3.664 -90.621,4.918 -3.008,4.222 -5.894,8.538 -8.849,12.797 5.673,1.325 11.382,2.507 17.029,3.926 -24.999,2.642 -25.652,24.194 -14.258,29.509 4.491,1.884 9.462,1.81 14.237,1.731 7.672,-0.125 54.995,3.897 59.403,-1.293 -2.041,-0.811 -41.898,-6.462 -63.587,-7.224 -2.359,-0.19 -4.966,-0.195 -7.013,-1.557 -4.569,-5.32 3.562,-10.681 6.132,-11.472 7.904,-2.647 26.119,-1.705 34.701,-0.079 26.001,4.909 29.332,6.685 31.593,5.224 -5.883,-4.685 -31.266,-13.406 -39.023,-13.62 35.961,-2 33.316,2.902 46.068,7.789 -0.422,-2.011 -2.032,-3.419 -3.419,-4.813 -13.626,-12.649 -29.842,-9.847 -54.337,-10.987 -3.233,-0.244 -3.933,-0.052 -24.232,1.668 11.13,-4.923 13.842,-8.122 51.683,-11.287 11.702,-1.193 36.752,-2.555 43.26,-4.322 0.521,-0.159 0.933,-0.459 1.233,-0.908 z"
   id="path48"
   inkscape:connector-curvature="0"
   style="fill:#020202"
   inkscape:original-d="m 476.12,477.517 c 13.2,-3.773 77.064,-3.664 90.621,4.918 3.008,4.222 5.894,8.538 8.849,12.797 -5.673,1.325 -11.382,2.507 -17.029,3.926 24.999,2.642 25.652,24.194 14.258,29.509 -4.491,1.884 -9.462,1.81 -14.237,1.731 -7.672,-0.125 -54.995,3.897 -59.403,-1.293 2.041,-0.811 41.898,-6.462 63.587,-7.224 2.359,-0.19 4.966,-0.195 7.013,-1.557 4.569,-5.32 -3.562,-10.681 -6.132,-11.472 -7.904,-2.647 -26.119,-1.705 -34.701,-0.079 -26.001,4.909 -29.332,6.685 -31.593,5.224 5.883,-4.685 31.266,-13.406 39.023,-13.62 -35.961,-2 -33.316,2.902 -46.068,7.789 0.422,-2.011 2.032,-3.419 3.419,-4.813 13.626,-12.649 29.842,-9.847 54.337,-10.987 3.233,-0.244 3.933,-0.052 24.232,1.668 -11.13,-4.923 -13.842,-8.122 -51.683,-11.287 -11.702,-1.193 -36.752,-2.555 -43.26,-4.322 -0.521,-0.159 -0.933,-0.459 -1.233,-0.908 z" />
	<path
   d="m 2903.5752,563.231 c -26.246,-1.944 -78.313,14.669 -85.228,19.968 2.172,2.732 26.749,-3.309 39.957,-5.741 38.916,-7.177 45.776,-8.262 69.55,0.211 12.665,4.672 19.174,8.31 23.066,8.718 -0.683,-3.806 -23.596,-20.653 -47.345,-23.156 z"
   id="path50"
   inkscape:connector-curvature="0"
   style="fill:#020202"
   inkscape:original-d="m 129.033,563.231 c 26.246,-1.944 78.313,14.669 85.228,19.968 -2.172,2.732 -26.749,-3.309 -39.957,-5.741 -38.916,-7.177 -45.776,-8.262 -69.55,0.211 -12.665,4.672 -19.174,8.31 -23.066,8.718 0.683,-3.806 23.596,-20.653 47.345,-23.156 z" />
	<path
   d="m 2518.3832,579.874 c -3.812,-2.082 -20.097,-1.816 -28.089,-0.259 -24.707,3.681 -22.173,23.159 -12.86,28.538 4.295,2.343 9.372,2.517 13.768,4.596 1.665,10.049 -32.809,17.03 -34.4,19.804 5.77,3.859 41.949,-3.158 43.118,-17.377 1.062,-11.555 -10.325,-11.784 -16.918,-14.163 -2.343,-0.665 -3.145,-3.277 -3.784,-5.356 2.722,-11.974 34.049,-10.879 39.165,-15.783 z"
   id="path52"
   inkscape:connector-curvature="0"
   style="fill:#020202"
   inkscape:original-d="m 514.225,579.874 c 3.812,-2.082 20.097,-1.816 28.089,-0.259 24.707,3.681 22.173,23.159 12.86,28.538 -4.295,2.343 -9.372,2.517 -13.768,4.596 -1.665,10.049 32.809,17.03 34.4,19.804 -5.77,3.859 -41.949,-3.158 -43.118,-17.377 -1.062,-11.555 10.325,-11.784 16.918,-14.163 2.343,-0.665 3.145,-3.277 3.784,-5.356 -2.722,-11.974 -34.049,-10.879 -39.165,-15.783 z" />
	<path
   d="m 2865.6182,585.557 c -25.518,2.005 -44.362,7.175 -51.551,10.306 -0.755,0.026 -1.113,1.477 -0.158,1.43 10.171,1.375 26.406,-2.47 55.398,-3.208 12.974,-0.313 21.316,0.278 50.617,14.311 5.229,2.653 16.763,8.728 19.562,7.942 -2.798,-4.576 -18.844,-16.37 -36.379,-24.337 -9.427,-3.846 -16.984,-7.728 -37.489,-6.444 z"
   id="path54"
   inkscape:connector-curvature="0"
   style="fill:#020202"
   inkscape:original-d="m 166.99,585.557 c 25.518,2.005 44.362,7.175 51.551,10.306 0.755,0.026 1.113,1.477 0.158,1.43 -10.171,1.375 -26.406,-2.47 -55.398,-3.208 -12.974,-0.313 -21.316,0.278 -50.617,14.311 -5.229,2.653 -16.763,8.728 -19.562,7.942 2.798,-4.576 18.844,-16.37 36.379,-24.337 9.427,-3.846 16.984,-7.728 37.489,-6.444 z" />
	<path
   d="m 2806.6742,602.908 c 2.806,5.288 39.541,24.565 57.93,38.021 19.995,15.053 24.978,42.687 51.313,32.659 3.617,-1.31 8.167,-5.08 8.269,-7.725 -3.265,0.766 -11.471,6.687 -22.76,2.063 -4.332,-1.108 -6.755,-5.203 -9.367,-8.475 -14.813,-21.13 -19.38,-25.715 -47.012,-40.622 -5.703,-2.989 -31.943,-16.424 -38.373,-15.921 z"
   id="path56"
   inkscape:connector-curvature="0"
   style="fill:#020202"
   inkscape:original-d="m 225.934,602.908 c -2.806,5.288 -39.541,24.565 -57.93,38.021 -19.995,15.053 -24.978,42.687 -51.313,32.659 -3.617,-1.31 -8.167,-5.08 -8.269,-7.725 3.265,0.766 11.471,6.687 22.76,2.063 4.332,-1.108 6.755,-5.203 9.367,-8.475 14.813,-21.13 19.38,-25.715 47.012,-40.622 5.703,-2.989 31.943,-16.424 38.373,-15.921 z" />
	<path
   d="m 2798.7642,603.784 c 1.852,5.755 31.726,31.118 46.617,48.02 30.676,36.433 41.168,77.479 65.007,87.397 3.794,1.815 8.607,2.1 12.279,-0.153 -3.591,-1.821 -8.829,0.68 -19.023,-11.52 -15.821,-18.954 -29.309,-60.472 -59.434,-88.848 -15.064,-13.933 -40.178,-34.045 -45.446,-34.896 z"
   id="path58"
   inkscape:connector-curvature="0"
   style="fill:#020202"
   inkscape:original-d="m 233.844,603.784 c -1.852,5.755 -31.726,31.118 -46.617,48.02 -30.676,36.433 -41.168,77.479 -65.007,87.397 -3.794,1.815 -8.607,2.1 -12.279,-0.153 3.591,-1.821 8.829,0.68 19.023,-11.52 15.821,-18.954 29.309,-60.472 59.434,-88.848 15.064,-13.933 40.178,-34.045 45.446,-34.896 z" />
	<path
   d="m 2830.7002,609.277 c 3.872,4.565 32.535,11.133 51.128,17.108 22.846,8.233 36.465,15.49 42.258,15.039 0.715,-4.187 -25.379,-17.31 -30.306,-19.614 -18.773,-8.749 -58.763,-15.71 -63.08,-12.533 z"
   id="path60"
   inkscape:connector-curvature="0"
   style="fill:#020202"
   inkscape:original-d="m 201.908,609.277 c -3.872,4.565 -32.535,11.133 -51.128,17.108 -22.846,8.233 -36.465,15.49 -42.258,15.039 -0.715,-4.187 25.379,-17.31 30.306,-19.614 18.773,-8.749 58.763,-15.71 63.08,-12.533 z" />
	<path
   d="m 2438.2002,620.702 c -4.045,-0.371 -13.298,-0.513 -16.791,1.52 -0.642,2.452 13.307,3.006 21.82,6.902 1.773,0.681 2.591,2.522 3.44,4.074 0.375,0.686 -0.47,1.309 -0.712,1.931 -1.388,1.916 -2.396,4.29 -4.554,5.504 -9.646,6.085 -24.91,8.844 -33.952,16.121 -3.743,2.807 -11.686,10.238 -13.018,14.617 3.364,0.894 14.352,-9.327 25.324,-12.791 8.464,-2.971 17.272,-5.235 25.118,-9.694 5.267,-3.053 11.718,-11.936 9.699,-17.862 -3.341,-8.721 -10.027,-9.512 -16.374,-10.322 z"
   id="path62"
   inkscape:connector-curvature="0"
   style="fill:#020202"
   inkscape:original-d="m 594.408,620.702 c 4.045,-0.371 13.298,-0.513 16.791,1.52 0.642,2.452 -13.307,3.006 -21.82,6.902 -1.773,0.681 -2.591,2.522 -3.44,4.074 -0.375,0.686 0.47,1.309 0.712,1.931 1.388,1.916 2.396,4.29 4.554,5.504 9.646,6.085 24.91,8.844 33.952,16.121 3.743,2.807 11.686,10.238 13.018,14.617 -3.364,0.894 -14.352,-9.327 -25.324,-12.791 -8.464,-2.971 -17.272,-5.235 -25.118,-9.694 -5.267,-3.053 -11.718,-11.936 -9.699,-17.862 3.341,-8.721 10.027,-9.512 16.374,-10.322 z" />
	<path
   d="m 2753.6302,635.298 c -5.412,0.352 -34.234,26.168 -26.026,38.754 1.355,2.449 2.917,1.561 -0.512,10.216 -6.032,14.723 -6.779,16.473 -6.554,19.145 4.191,-0.186 19.362,-20.4 16.691,-29.767 -0.317,-1.763 -1.715,-3.039 -2.348,-4.649 -0.278,-7.397 18.247,-26.825 18.749,-33.699 z"
   id="path64"
   inkscape:connector-curvature="0"
   style="fill:#020202"
   inkscape:original-d="m 278.978,635.298 c 5.412,0.352 34.234,26.168 26.026,38.754 -1.355,2.449 -2.917,1.561 0.512,10.216 6.032,14.723 6.779,16.473 6.554,19.145 -4.191,-0.186 -19.362,-20.4 -16.691,-29.767 0.317,-1.763 1.715,-3.039 2.348,-4.649 0.278,-7.397 -18.247,-26.825 -18.749,-33.699 z" />
	<path
   d="m 2301.4532,733.423 c -0.58,2.069 0.385,4.105 0.828,6.105 2.519,10.428 2.525,9.125 -2.105,20.037 -7.153,14.657 -9.747,16.744 -13.588,18.506 -1.24,0.586 -2.712,0.971 -3.472,2.253 10.86,10.331 33.36,-20.562 27.625,-36.184 -1.353,-3.997 -5.461,-10.334 -9.288,-10.717 z"
   id="path66"
   inkscape:connector-curvature="0"
   style="fill:#020202"
   inkscape:original-d="m 731.155,733.423 c 0.58,2.069 -0.385,4.105 -0.828,6.105 -2.519,10.428 -2.525,9.125 2.105,20.037 7.153,14.657 9.747,16.744 13.588,18.506 1.24,0.586 2.712,0.971 3.472,2.253 -10.86,10.331 -33.36,-20.562 -27.625,-36.184 1.353,-3.997 5.461,-10.334 9.288,-10.717 z" />
	<path
   d="m 2359.8852,785.887 c -0.419,1.601 -4.209,9.405 7.351,8.079 -6.936,-2.939 -5.425,-2.268 -7.351,-8.079 z"
   id="path68"
   inkscape:connector-curvature="0"
   style="fill:#020202"
   inkscape:original-d="m 672.723,785.887 c 0.419,1.601 4.209,9.405 -7.351,8.079 6.936,-2.939 5.425,-2.268 7.351,-8.079 z" />
	<path
   d="m 2379.8842,844.091 c 2.811,8.366 60.386,41.381 69.45,39.139 -1.901,-6.926 -60.854,-40.964 -69.45,-39.139 z"
   id="path70"
   inkscape:connector-curvature="0"
   style="fill:#020202"
   inkscape:original-d="m 652.724,844.091 c -2.811,8.366 -60.386,41.381 -69.45,39.139 1.901,-6.926 60.854,-40.964 69.45,-39.139 z" />
	<path
   d="m 2582.9472,911.109 c 1.75,4.648 35.555,27.544 58.416,36.817 -0.617,0.005 -1.24,0.026 -1.879,0.063 l 0.327,-0.427 c -11.192,-3.161 -22.258,-6.813 -32.965,-11.367 -12.543,-5.233 -30.067,-13.427 -35.519,-14.459 2.555,4.408 32.732,19.983 38.48,22.628 28.465,13.04 103.004,32.419 122.505,35.846 48.747,8.994 67.755,-7.695 93.006,-30.617 1.446,-1.451 3.018,-2.844 3.995,-4.665 -5.045,1.016 -18.566,12.93 -37.482,22.923 -30.185,16.012 -77.58,-0.897 -109.919,-8.992 16.095,2.686 32.306,4.802 48.606,5.725 7.394,0.621 28.935,-0.593 32.126,-2.723 -3.166,-1.419 -6.755,-1.409 -10.153,-1.847 -97.796,-11.362 -107.75,-18.282 -144.531,-37.081 -7.611,-4.032 -20.98,-11.516 -25.013,-11.824 z"
   id="path72"
   inkscape:connector-curvature="0"
   style="fill:#020202"
   inkscape:original-d="m 449.661,911.109 c -1.75,4.648 -35.555,27.544 -58.416,36.817 0.617,0.005 1.24,0.026 1.879,0.063 l -0.327,-0.427 c 11.192,-3.161 22.258,-6.813 32.965,-11.367 12.543,-5.233 30.067,-13.427 35.519,-14.459 -2.555,4.408 -32.732,19.983 -38.48,22.628 -28.465,13.04 -103.004,32.419 -122.505,35.846 -48.747,8.994 -67.755,-7.695 -93.006,-30.617 -1.446,-1.451 -3.018,-2.844 -3.995,-4.665 5.045,1.016 18.566,12.93 37.482,22.923 30.185,16.012 77.58,-0.897 109.919,-8.992 -16.095,2.686 -32.306,4.802 -48.606,5.725 -7.394,0.621 -28.935,-0.593 -32.126,-2.723 3.166,-1.419 6.755,-1.409 10.153,-1.847 97.796,-11.362 107.75,-18.282 144.531,-37.081 7.611,-4.032 20.98,-11.516 25.013,-11.824 z" />
	<path
   d="m 2446.6012,934.639 c -3.487,-0.536 -22.032,1.263 -30.654,3.9 -10.82,3.469 -33.711,18.545 -42.944,24.712 -5.025,3.208 -8.489,2.488 -38.506,11.588 -47.691,13.915 -43.269,15.5 -76.706,30.997 -18.96,8.884 -32.864,9 -64.31,18.57 -119.934,35.076 -146.909,50.084 -163.781,96.832 -32.822,89.57 1.168,2.326 -127.27,263.705 -9.187,18.253 -20.58,35.271 -30.174,53.297 -8.985,19.009 -8.652,18.859 -8.939,36.501 -0.1,2.945 1.05,5.979 3.562,7.662 -16.966,19.613 -27.366,31.855 -41.239,39.488 -21.121,12.095 -18.516,6.007 -60.31,31.065 -9.248,5.703 -35.181,19.455 -54.917,27.345 -18.142,6.806 -21.661,4.135 -46.39,14.802 -11.079,5.204 -19.097,5.108 -26.828,15.942 -4.367,6.066 -4.099,17.495 6.258,23.108 19.642,10.692 43.518,7.087 57.989,8.834 12.786,1.224 25.799,3.757 38.569,1.055 11.757,-2.623 22.759,-8.105 34.754,-9.741 20.928,-2.747 56.77,-1.286 77.212,1.599 44.041,6.143 46.269,7.95 50.036,7.229 8.304,-1.267 25.446,-3.688 32.485,-8.649 9.348,-6.578 13.376,-17.09 13.345,-25.678 -0.27,-8.875 -6.894,-40.539 -9.187,-50.959 -0.376,-3.5 -1.68,2.679 7.926,-24.475 7.852,6.966 16.717,12.665 24.992,19.092 27.87,21.762 34.063,43.494 61.835,44.511 13.599,0.633 27.018,-2.992 40.627,-2.026 14.786,0.512 29.567,1.293 44.358,1.34 4.269,1.678 8.174,4.211 12.443,5.926 65.135,27.29 75.961,11.842 182.899,-16.39 128.539,-34.911 113.112,-31.486 135.56,-45.292 4.691,4.084 11.335,3.615 16.796,6.037 17.529,7.745 88.035,35.79 136.721,40.158 0.741,0.075 125.578,6.915 126.109,6.944 81.583,4.961 96.644,2.645 120.241,1.018 18.42,-1.645 34.955,-3.297 54.084,-18.432 11.414,-9.186 20.676,-23.054 22.005,-39.735 2.799,-30.742 7.46,-41.58 6.876,-60.099 -0.201,-18.502 -9.186,-36.366 -11.541,-52.738 -2.711,-21.334 -0.484,-61.449 -0.47,-63.909 -0.365,-28.543 -14.637,-75.38 -18.105,-97.655 55.181,139.929 30.727,86.078 56.363,148.351 12.99,-1.448 17.343,-0.074 28.601,-24.353 0.886,-1.72 0.734,-3.799 0.274,-5.599 -34.536,-81.751 -23.045,-82.7 -99.312,-257.869 -6.082,-14.087 -39.185,-86.52 -44.59,-93.339 0.47,4.084 2.57,7.783 3.821,11.667 24.782,62.092 40.178,93.533 82.78,206.403 31.881,86.031 22.079,74.356 48.949,135.174 0.227,0.016 0.686,0.047 0.918,0.063 l -0.079,1.103 c -0.259,-0.01 -0.77,-0.026 -1.024,-0.031 -10.343,22.459 -9.812,12.877 -17.673,21.556 -12.033,-47.041 -27.647,-81.719 -46.991,-126.146 -16.45,-38.305 -14.387,-28.836 -16.702,-39.593 -13.118,-64.836 -7.004,-37.195 -13.124,-59.688 -19.24,-67.218 -15.678,-78.208 -49.44,-102.267 -3.103,-2.185 -5.963,-4.781 -9.404,-6.448 5.325,6.01 16.819,13.919 28.026,27.963 7.868,10.169 10.607,23.076 13.229,35.382 3.504,18.026 9.071,35.556 13.678,53.313 3.035,10.004 11.111,60.784 19.757,101.291 12.576,57.885 13.159,56.847 10.733,108.215 -5.035,-38.401 -17.766,-69.893 -34.057,-103.476 -48.359,-96.547 -113.74,-204.914 -120.589,-210.403 0.934,8.048 42.002,80.865 92.943,175.723 17.767,33.629 39.093,70.83 52.01,113.154 7.539,23.435 7.546,26.485 9.773,29.387 0.464,45.22 13.7,52.135 12.549,79.534 -0.794,18.591 -4.399,25.752 -7.061,55.83 -9.135,59.521 -91.101,53.413 -189.548,48.479 -156.594,-7.376 -135.78,-1.235 -228.883,-31.171 -7.367,-2.422 -14.781,-4.718 -22.031,-7.483 -4.306,-1.493 -8.443,-3.551 -12.934,-4.475 -10.413,-2.664 -12.289,-0.286 -16.174,-11.272 -0.96,-2.417 -1.14,-5.082 -2.295,-7.419 -0.211,3.894 0.559,7.82 1.731,11.535 -4.237,-4.058 -8.427,-8.158 -12.649,-12.227 26.414,-42.172 24.932,-39.637 25.456,-40.997 30.049,-79.766 28.476,-75.203 29.609,-79.075 4.862,-15.793 4.569,-15.12 5.277,-15.461 -0.634,2.392 -25.242,89.598 -26.216,99.708 2.689,-5.874 28.655,-101.169 27.424,-106.948 0.237,0.565 0.718,1.694 0.96,2.259 -0.427,-1.71 1.061,-3.156 0.121,-4.818 l 0.871,0.676 c -0.021,-0.448 -0.074,-1.346 -0.1,-1.799 0.52,-0.535 1.764,-5.826 1.937,-7.161 -43.455,91.024 -18.608,63.153 -70.31,154.377 6.127,5.077 12.185,10.237 18.348,15.266 -31.293,12.925 -86.514,25.482 -168.725,48.216 -76.09,21.66 -89.832,30.777 -145.802,6.48 -75.725,-37.863 -108.684,-39.191 -179.417,-83.381 -25.807,-16.378 -41.161,-15.584 -63.645,-24.005 -12.803,-5.505 -7.543,-5.069 -17.287,-11.034 0.919,-24.079 -2.5,-13.466 31.24,-73.534 9.475,-16.764 31.233,-64.232 56.326,-114.674 22.922,-45.638 43.296,-80.595 56.601,-109.149 41.697,-87.241 -4.406,-97.09 222.118,-159.047 -0.243,0.253 -0.739,0.76 -0.981,1.013 14.187,2.248 91.554,-3.192 104.209,-3.979 29.477,-1.341 162.289,4.058 173.126,-0.707 -9.313,-4.433 -147.187,-9.395 -172.161,-7.799 -90.58,8.19 -103.914,11.319 -103.914,11.319 30.573,-7.918 35.328,-20.372 94.479,-38.833 13.023,-4.232 26.237,-7.873 39.287,-11.979 49.34,-33.16 39.444,-26.447 74.183,-33.277 m 48.511,448.636 0.185,0.433 c -0.238,1.409 -1.414,-0.802 -0.185,-0.433 m -0.517,1.446 c 0.433,0.691 0.301,1.108 -0.385,1.25 -0.401,-0.691 -0.27,-1.107 0.385,-1.25 m -0.596,2.026 0.285,0.259 -0.216,0.438 -0.501,0.01 -0.216,-0.427 c 0.162,-0.069 0.489,-0.206 0.648,-0.275 m -579.289,116.289 c 21.441,5.586 29.627,12.501 56.11,28.538 34.849,20.407 127.549,54.017 138.188,59.809 -10.722,-1.556 -36.302,-5.049 -47.123,-4.512 -15.409,0.452 -30.848,4.339 -43.756,-2.929 -21.099,-12.742 -12.762,-20.721 -58.078,-45.704 -4.322,-2.026 -8.443,-4.522 -12.992,-6.037 1.203,-3.852 2.913,-7.609 3.451,-11.62 -2.541,3.186 -9.996,21.408 -14.96,32.759 -23.641,4.09 -73.505,21.52 -96.795,25.303 -20.75,3.321 -52.592,-5.187 -79.197,-9.9 -2.285,-0.174 -4.781,-1.388 -6.95,-0.127 5.329,3.843 31.011,12.983 59.076,17.852 19.131,3.026 29.281,2.216 56.358,-5.879 0.538,-0.169 51.161,-16.558 66.268,-24.322 8.026,49.484 8.596,52.333 6.617,58.231 -2.986,10.073 -9.537,14.837 -12.976,16.01 -8.404,3.035 -26.962,6.12 -30.179,5.229 -129.191,-24.74 -141.535,-1.375 -164.578,0.496 -13.092,1.103 -26.015,-2.211 -39.065,-2.565 -2.906,-0.122 -43.429,1.038 -50.453,-10.765 -0.591,-2.359 -0.992,-5.272 0.723,-7.261 1.879,-2.174 3.683,-4.58 6.301,-5.884 44.204,-21.904 41.53,-9.88 87.555,-33.751 4.876,-2.581 9.662,-5.324 14.591,-7.784 -0.074,-0.111 -0.222,-0.338 -0.296,-0.449 1.331,0.962 22.427,-12.972 31.055,-18.227 32.128,-20.358 43.649,-13.023 75.54,-53.714 3.077,-4.169 5.989,-8.459 9.018,-12.66 14.3,9.386 1.305,6.915 46.547,19.863 z"
   id="path74"
   inkscape:connector-curvature="0"
   style="fill:#020202"
   inkscape:original-d="m 586.007,934.639 c 3.487,-0.536 22.032,1.263 30.654,3.9 10.82,3.469 33.711,18.545 42.944,24.712 5.025,3.208 8.489,2.488 38.506,11.588 47.691,13.915 43.269,15.5 76.706,30.997 18.96,8.884 32.864,9 64.31,18.57 119.934,35.076 146.909,50.084 163.781,96.832 32.822,89.57 -1.168,2.326 127.27,263.705 9.187,18.253 20.58,35.271 30.174,53.297 8.985,19.009 8.652,18.859 8.939,36.501 0.1,2.945 -1.05,5.979 -3.562,7.662 16.966,19.613 27.366,31.855 41.239,39.488 21.121,12.095 18.516,6.007 60.31,31.065 9.248,5.703 35.181,19.455 54.917,27.345 18.142,6.806 21.661,4.135 46.39,14.802 11.079,5.204 19.097,5.108 26.828,15.942 4.367,6.066 4.099,17.495 -6.258,23.108 -19.642,10.692 -43.518,7.087 -57.989,8.834 -12.786,1.224 -25.799,3.757 -38.569,1.055 -11.757,-2.623 -22.759,-8.105 -34.754,-9.741 -20.928,-2.747 -56.77,-1.286 -77.212,1.599 -44.041,6.143 -46.269,7.95 -50.036,7.229 -8.304,-1.267 -25.446,-3.688 -32.485,-8.649 -9.348,-6.578 -13.376,-17.09 -13.345,-25.678 0.27,-8.875 6.894,-40.539 9.187,-50.959 0.376,-3.5 1.68,2.679 -7.926,-24.475 -7.852,6.966 -16.717,12.665 -24.992,19.092 -27.87,21.762 -34.063,43.494 -61.835,44.511 -13.599,0.633 -27.018,-2.992 -40.627,-2.026 -14.786,0.512 -29.567,1.293 -44.358,1.34 -4.269,1.678 -8.174,4.211 -12.443,5.926 -65.135,27.29 -75.961,11.842 -182.899,-16.39 -128.539,-34.911 -113.112,-31.486 -135.56,-45.292 -4.691,4.084 -11.335,3.615 -16.796,6.037 -17.529,7.745 -88.035,35.79 -136.721,40.158 -0.741,0.075 -125.578,6.915 -126.109,6.944 -81.583,4.961 -96.644,2.645 -120.241,1.018 -18.42,-1.645 -34.955,-3.297 -54.084,-18.432 -11.414,-9.186 -20.676,-23.054 -22.005,-39.735 -2.799,-30.742 -7.46,-41.58 -6.876,-60.099 0.201,-18.502 9.186,-36.366 11.541,-52.738 2.711,-21.334 0.484,-61.449 0.47,-63.909 0.365,-28.543 14.637,-75.38 18.105,-97.655 -55.181,139.929 -30.727,86.078 -56.363,148.351 -12.99,-1.448 -17.343,-0.074 -28.601,-24.353 -0.886,-1.72 -0.734,-3.799 -0.274,-5.599 34.536,-81.751 23.045,-82.7 99.312,-257.869 6.082,-14.087 39.185,-86.52 44.59,-93.339 -0.47,4.084 -2.57,7.783 -3.821,11.667 -24.782,62.092 -40.178,93.533 -82.78,206.403 -31.881,86.031 -22.079,74.356 -48.949,135.174 -0.227,0.016 -0.686,0.047 -0.918,0.063 l 0.079,1.103 c 0.259,-0.01 0.77,-0.026 1.024,-0.031 10.343,22.459 9.812,12.877 17.673,21.556 12.033,-47.041 27.647,-81.719 46.991,-126.146 16.45,-38.305 14.387,-28.836 16.702,-39.593 13.118,-64.836 7.004,-37.195 13.124,-59.688 19.24,-67.218 15.678,-78.208 49.44,-102.267 3.103,-2.185 5.963,-4.781 9.404,-6.448 -5.325,6.01 -16.819,13.919 -28.026,27.963 -7.868,10.169 -10.607,23.076 -13.229,35.382 -3.504,18.026 -9.071,35.556 -13.678,53.313 -3.035,10.004 -11.111,60.784 -19.757,101.291 -12.576,57.885 -13.159,56.847 -10.733,108.215 5.035,-38.401 17.766,-69.893 34.057,-103.476 48.359,-96.547 113.74,-204.914 120.589,-210.403 -0.934,8.048 -42.002,80.865 -92.943,175.723 -17.767,33.629 -39.093,70.83 -52.01,113.154 -7.539,23.435 -7.546,26.485 -9.773,29.387 -0.464,45.22 -13.7,52.135 -12.549,79.534 0.794,18.591 4.399,25.752 7.061,55.83 9.135,59.521 91.101,53.413 189.548,48.479 156.594,-7.376 135.78,-1.235 228.883,-31.171 7.367,-2.422 14.781,-4.718 22.031,-7.483 4.306,-1.493 8.443,-3.551 12.934,-4.475 10.413,-2.664 12.289,-0.286 16.174,-11.272 0.96,-2.417 1.14,-5.082 2.295,-7.419 0.211,3.894 -0.559,7.82 -1.731,11.535 4.237,-4.058 8.427,-8.158 12.649,-12.227 -26.414,-42.172 -24.932,-39.637 -25.456,-40.997 -30.049,-79.766 -28.476,-75.203 -29.609,-79.075 -4.862,-15.793 -4.569,-15.12 -5.277,-15.461 0.634,2.392 25.242,89.598 26.216,99.708 -2.689,-5.874 -28.655,-101.169 -27.424,-106.948 -0.237,0.565 -0.718,1.694 -0.96,2.259 0.427,-1.71 -1.061,-3.156 -0.121,-4.818 l -0.871,0.676 c 0.021,-0.448 0.074,-1.346 0.1,-1.799 -0.52,-0.535 -1.764,-5.826 -1.937,-7.161 43.455,91.024 18.608,63.153 70.31,154.377 -6.127,5.077 -12.185,10.237 -18.348,15.266 31.293,12.925 86.514,25.482 168.725,48.216 76.09,21.66 89.832,30.777 145.802,6.48 75.725,-37.863 108.684,-39.191 179.417,-83.381 25.807,-16.378 41.161,-15.584 63.645,-24.005 12.803,-5.505 7.543,-5.069 17.287,-11.034 -0.919,-24.079 2.5,-13.466 -31.24,-73.534 -9.475,-16.764 -31.233,-64.232 -56.326,-114.674 -22.922,-45.638 -43.296,-80.595 -56.601,-109.149 -41.697,-87.241 4.406,-97.09 -222.118,-159.047 0.243,0.253 0.739,0.76 0.981,1.013 -14.187,2.248 -91.554,-3.192 -104.209,-3.979 -29.477,-1.341 -162.289,4.058 -173.126,-0.707 9.313,-4.433 147.187,-9.395 172.161,-7.799 90.58,8.19 103.914,11.319 103.914,11.319 -30.573,-7.918 -35.328,-20.372 -94.479,-38.833 -13.023,-4.232 -26.237,-7.873 -39.287,-11.979 -49.34,-33.16 -39.444,-26.447 -74.183,-33.277 m -48.511,448.636 -0.185,0.433 c 0.238,1.409 1.414,-0.802 0.185,-0.433 m 0.517,1.446 c -0.433,0.691 -0.301,1.108 0.385,1.25 0.401,-0.691 0.27,-1.107 -0.385,-1.25 m 0.596,2.026 -0.285,0.259 0.216,0.438 0.501,0.01 0.216,-0.427 c -0.162,-0.069 -0.489,-0.206 -0.648,-0.275 m 579.289,116.289 c -21.441,5.586 -29.627,12.501 -56.11,28.538 -34.849,20.407 -127.549,54.017 -138.188,59.809 10.722,-1.556 36.302,-5.049 47.123,-4.512 15.409,0.452 30.848,4.339 43.756,-2.929 21.099,-12.742 12.762,-20.721 58.078,-45.704 4.322,-2.026 8.443,-4.522 12.992,-6.037 -1.203,-3.852 -2.913,-7.609 -3.451,-11.62 2.541,3.186 9.996,21.408 14.96,32.759 23.641,4.09 73.505,21.52 96.795,25.303 20.75,3.321 52.592,-5.187 79.197,-9.9 2.285,-0.174 4.781,-1.388 6.95,-0.127 -5.329,3.843 -31.011,12.983 -59.076,17.852 -19.131,3.026 -29.281,2.216 -56.358,-5.879 -0.538,-0.169 -51.161,-16.558 -66.268,-24.322 -8.026,49.484 -8.596,52.333 -6.617,58.231 2.986,10.073 9.537,14.837 12.976,16.01 8.404,3.035 26.962,6.12 30.179,5.229 129.191,-24.74 141.535,-1.375 164.578,0.496 13.092,1.103 26.015,-2.211 39.065,-2.565 2.906,-0.122 43.429,1.038 50.453,-10.765 0.591,-2.359 0.992,-5.272 -0.723,-7.261 -1.879,-2.174 -3.683,-4.58 -6.301,-5.884 -44.204,-21.904 -41.53,-9.88 -87.555,-33.751 -4.876,-2.581 -9.662,-5.324 -14.591,-7.784 0.074,-0.111 0.222,-0.338 0.296,-0.449 -1.331,0.962 -22.427,-12.972 -31.055,-18.227 -32.128,-20.358 -43.649,-13.023 -75.54,-53.714 -3.077,-4.169 -5.989,-8.459 -9.018,-12.66 -14.3,9.386 -1.305,6.915 -46.547,19.863 z" />
	<path
   d="m 2448.8752,935.066 c 0.354,2.681 2.786,4.427 4.19,6.591 39.775,46.39 67.49,62.733 94.711,77.35 6.447,3.528 41.136,22.324 48.775,22.084 -3.654,-5.922 -58.078,-35.081 -84.553,-54.421 -24.104,-18.412 -55.135,-48.709 -63.123,-51.604 z"
   id="path76"
   inkscape:connector-curvature="0"
   style="fill:#020202"
   inkscape:original-d="m 583.733,935.066 c -0.354,2.681 -2.786,4.427 -4.19,6.591 -39.775,46.39 -67.49,62.733 -94.711,77.35 -6.447,3.528 -41.136,22.324 -48.775,22.084 3.654,-5.922 58.078,-35.081 84.553,-54.421 24.104,-18.412 55.135,-48.709 63.123,-51.604 z" />
	<path
   d="m 2452.3212,948.311 c -10.698,-2.818 -87.78,19.798 -94.959,27.43 0.423,5.82 86.634,-18.572 94.996,-26.701 -0.011,-0.18 -0.026,-0.544 -0.037,-0.729 z"
   id="path78"
   inkscape:connector-curvature="0"
   style="fill:#020202"
   inkscape:original-d="m 580.287,948.311 c 10.698,-2.818 87.78,19.798 94.959,27.43 -0.423,5.82 -86.634,-18.572 -94.996,-26.701 0.011,-0.18 0.026,-0.544 0.037,-0.729 z" />
	<path
   d="m 2828.9532,951.979 c -2.44,8.024 -3.196,50.224 0.591,61.614 2.605,9.153 7.007,11.685 4.633,17.636 -3.003,6.2 -9.045,10.512 -11.177,17.203 -4.068,11.638 7.096,16.277 -22.881,22.717 -20.98,3.565 -90.299,-1.901 -100.822,2.633 4.347,2.791 72.562,6.842 77.629,6.913 10.392,0.164 31.21,0.485 43.656,-6.533 11.557,-7.026 9.969,-15.185 10.264,-21.039 0.263,-6.098 7.932,-10.59 10.849,-18.564 3.749,-9.087 -1.113,-14.082 -4.67,-22.511 -4.665,-11.491 -4.881,-56.328 -8.072,-60.069 z"
   id="path80"
   inkscape:connector-curvature="0"
   style="fill:#020202"
   inkscape:original-d="m 203.655,951.979 c 2.44,8.024 3.196,50.224 -0.591,61.614 -2.605,9.153 -7.007,11.685 -4.633,17.636 3.003,6.2 9.045,10.512 11.177,17.203 4.068,11.638 -7.096,16.277 22.881,22.717 20.98,3.565 90.299,-1.901 100.822,2.633 -4.347,2.791 -72.562,6.842 -77.629,6.913 -10.392,0.164 -31.21,0.485 -43.656,-6.533 -11.557,-7.026 -9.969,-15.185 -10.264,-21.039 -0.263,-6.098 -7.932,-10.59 -10.849,-18.564 -3.749,-9.087 1.113,-14.082 4.67,-22.511 4.665,-11.491 4.881,-56.328 8.072,-60.069 z" />
	<path
   d="m 2660.5292,1026.073 c -7.272,-5.327 -37.823,-1.392 -29.25,1.145 22.568,4.586 16.704,-1.857 38.432,14.58 -1.863,3.678 -4.348,6.981 -6.871,10.232 -1.02,1.413 -10.846,5.406 -20.87,-1.082 -8.907,-5.781 -12.652,-7.279 -11.894,-10.396 0.884,-3.786 -0.331,-12.973 -2.412,-14.169 -0.153,0.348 -0.459,1.034 -0.612,1.383 -19.103,1.756 -24.34,2.995 -33.377,20.49 -18.962,36.433 -14.645,27.949 -10.237,376.923 15.388,0.296 30.775,0.596 46.163,0.86 0.66,-28.781 1.383,-57.566 2.037,-86.352 -5.681,-310.923 -1.889,-194.196 -3.013,-289.404 11.149,9.276 20.256,15.912 34.284,11.599 -8.722,54.152 -3.122,234.015 -1.219,340.216 15.076,0 30.158,0.042 45.239,0.026 3.961,-50.925 3.469,-14.38 -0.148,-175.327 0.908,-22.158 1.456,-44.326 1.34,-66.5 -1.502,-72.184 -4.743,-80.934 -16.169,-99.798 -0.382,-6.264 -5.262,-16.179 -13.863,-16.744 2.373,-7.724 -7.656,-11.044 -17.56,-17.682 m -33.657,2.659 c -0.828,3.361 -0.586,6.955 -1.947,10.184 -1.024,2.633 -0.623,5.757 0.887,8.132 1.624,2.669 0.556,-9.097 -3.784,106.901 -0.506,9.478 -0.397,116.848 3.272,267.711 -12.459,-0.327 -24.928,-0.538 -37.387,-0.955 0.554,-350.151 -9.417,-333.134 9.878,-372.073 8.35,-17.006 11.699,-15.387 29.081,-19.9 m 52.427,24.491 c 3.789,2.876 6.496,6.971 10.459,9.651 21.697,37.203 4.853,74.589 12.77,334.754 -12.148,0.01 -24.3,0.021 -36.453,0.026 -1.975,-374.566 -4.462,-299.903 -0.929,-336.538 3.662,-1.625 5.657,-5.219 8.063,-8.179 1.963,-0.527 4.38,-1.224 6.09,0.286 z"
   id="path82"
   inkscape:connector-curvature="0"
   style="fill:#020202"
   inkscape:original-d="m 372.079,1026.073 c 7.272,-5.327 37.823,-1.392 29.25,1.145 -22.568,4.586 -16.704,-1.857 -38.432,14.58 1.863,3.678 4.348,6.981 6.871,10.232 1.02,1.413 10.846,5.406 20.87,-1.082 8.907,-5.781 12.652,-7.279 11.894,-10.396 -0.884,-3.786 0.331,-12.973 2.412,-14.169 0.153,0.348 0.459,1.034 0.612,1.383 19.103,1.756 24.34,2.995 33.377,20.49 18.962,36.433 14.645,27.949 10.237,376.923 -15.388,0.296 -30.775,0.596 -46.163,0.86 -0.66,-28.781 -1.383,-57.566 -2.037,-86.352 5.681,-310.923 1.889,-194.196 3.013,-289.404 -11.149,9.276 -20.256,15.912 -34.284,11.599 8.722,54.152 3.122,234.015 1.219,340.216 -15.076,0 -30.158,0.042 -45.239,0.026 -3.961,-50.925 -3.469,-14.38 0.148,-175.327 -0.908,-22.158 -1.456,-44.326 -1.34,-66.5 1.502,-72.184 4.743,-80.934 16.169,-99.798 0.382,-6.264 5.262,-16.179 13.863,-16.744 -2.373,-7.724 7.656,-11.044 17.56,-17.682 m 33.657,2.659 c 0.828,3.361 0.586,6.955 1.947,10.184 1.024,2.633 0.623,5.757 -0.887,8.132 -1.624,2.669 -0.556,-9.097 3.784,106.901 0.506,9.478 0.397,116.848 -3.272,267.711 12.459,-0.327 24.928,-0.538 37.387,-0.955 -0.554,-350.151 9.417,-333.134 -9.878,-372.073 -8.35,-17.006 -11.699,-15.387 -29.081,-19.9 m -52.427,24.491 c -3.789,2.876 -6.496,6.971 -10.459,9.651 -21.697,37.203 -4.853,74.589 -12.77,334.754 12.148,0.01 24.3,0.021 36.453,0.026 1.975,-374.566 4.462,-299.903 0.929,-336.538 -3.662,-1.625 -5.657,-5.219 -8.063,-8.179 -1.963,-0.527 -4.38,-1.224 -6.09,0.286 z" />
	<path
   d="m 2561.8602,1040.199 c -6.766,-3.024 -136.263,9.801 -220.329,10.976 -140.421,2.392 -176.899,-6.581 -212.841,4.364 -29.635,9.215 -56.778,23.092 -61.118,26.401 4.58,-0.697 8.865,-2.601 13.203,-4.132 53.342,-19.898 61.151,-20.433 96.178,-20.543 23.873,-0.143 184.536,13.668 373.793,-14.923 3.727,-0.576 7.521,-0.956 11.114,-2.143 z"
   id="path84"
   inkscape:connector-curvature="0"
   style="fill:#020202"
   inkscape:original-d="m 470.748,1040.199 c 6.766,-3.024 136.263,9.801 220.329,10.976 140.421,2.392 176.899,-6.581 212.841,4.364 29.635,9.215 56.778,23.092 61.118,26.401 -4.58,-0.697 -8.865,-2.601 -13.203,-4.132 -53.342,-19.898 -61.151,-20.433 -96.178,-20.543 -23.873,-0.143 -184.536,13.668 -373.793,-14.923 -3.727,-0.576 -7.521,-0.956 -11.114,-2.143 z" />
	<path
   d="m 2730.4062,1084.32 c 0.664,5.957 25.141,56.08 43.092,94.732 112.068,236.874 84.423,216.95 129.069,306.807 1.504,2.792 2.591,5.884 4.749,8.264 -0.2,-5.436 -14.026,-39.903 -20.274,-56.11 -51.034,-174.393 -152.229,-349.766 -156.636,-353.693 z"
   id="path86"
   inkscape:connector-curvature="0"
   style="fill:#020202"
   inkscape:original-d="m 302.202,1084.32 c -0.664,5.957 -25.141,56.08 -43.092,94.732 -112.068,236.874 -84.423,216.95 -129.069,306.807 -1.504,2.792 -2.591,5.884 -4.749,8.264 0.2,-5.436 14.026,-39.903 20.274,-56.11 C 196.6,1263.62 297.795,1088.247 302.202,1084.32 Z" />
	<path
   d="m 2105.5092,1088.261 c -18.916,1.433 -41.041,4.908 -44.142,7.045 18.402,0.77 50.884,-8.057 105.143,4.649 142.46,34.547 157.14,49.638 261.653,45.34 80.481,-3.486 138.523,-9.562 147.248,-11.615 -0.948,-2.348 -68.104,1.207 -84.289,1.91 -164.219,6.147 -139.227,0.921 -311.198,-39.925 -27.614,-6.223 -45.607,-9.697 -74.415,-7.404 z"
   id="path88"
   inkscape:connector-curvature="0"
   style="fill:#020202"
   inkscape:original-d="m 927.099,1088.261 c 18.916,1.433 41.041,4.908 44.142,7.045 -18.402,0.77 -50.884,-8.057 -105.143,4.649 -142.46,34.547 -157.14,49.638 -261.653,45.34 -80.481,-3.486 -138.523,-9.562 -147.248,-11.615 0.948,-2.348 68.104,1.207 84.289,1.91 164.219,6.147 139.227,0.921 311.198,-39.925 27.614,-6.223 45.607,-9.697 74.415,-7.404 z" />
	<path
   d="m 2057.9642,1116.324 c -2.87,17.636 35.517,391.354 99.539,436.531 -6.033,-19.889 -33.435,-5.825 -82.4,-331.852 -4.335,-28.372 -13.49,-96.054 -17.139,-104.679 z"
   id="path90"
   inkscape:connector-curvature="0"
   style="fill:#020202"
   inkscape:original-d="m 974.644,1116.324 c 2.87,17.636 -35.517,391.354 -99.539,436.531 6.033,-19.889 33.435,-5.825 82.4,-331.852 4.335,-28.372 13.49,-96.054 17.139,-104.679 z" />
	<path
   d="m 2108.6382,1177.59 c -0.883,5.429 24.805,80.371 52.738,135.417 17.606,34.16 29.24,51.994 64.342,78.157 28.761,21.494 62.065,38.037 66.922,38.052 -1.958,-2.343 -4.765,-3.678 -7.214,-5.409 -105.044,-68.172 -100.63,-78.646 -162.193,-216.16 -1.778,-4.106 -11.072,-25.642 -14.595,-30.057 z"
   id="path92"
   inkscape:connector-curvature="0"
   style="fill:#020202"
   inkscape:original-d="m 923.97,1177.59 c 0.883,5.429 -24.805,80.371 -52.738,135.417 -17.606,34.16 -29.24,51.994 -64.342,78.157 -28.761,21.494 -62.065,38.037 -66.922,38.052 1.958,-2.343 4.765,-3.678 7.214,-5.409 105.044,-68.172 100.63,-78.646 162.193,-216.16 1.778,-4.106 11.072,-25.642 14.595,-30.057 z" />
	<path
   d="m 2023.0202,1238.285 c -2.073,14.97 5.949,124.207 23.308,169.29 14.858,38.473 37.276,75.741 42.026,78.653 -0.879,-6.25 -17.408,-37.533 -29.662,-69.434 -13.815,-34.936 -15.255,-52.024 -28.3,-139.792 -3.432,-23.056 -5.335,-38.124 -7.372,-38.717 z"
   id="path94"
   inkscape:connector-curvature="0"
   style="fill:#020202"
   inkscape:original-d="m 1009.588,1238.285 c 2.073,14.97 -5.949,124.207 -23.308,169.29 -14.858,38.473 -37.276,75.741 -42.026,78.653 0.879,-6.25 17.408,-37.533 29.662,-69.434 13.815,-34.936 15.255,-52.024 28.3,-139.792 3.432,-23.056 5.335,-38.124 7.372,-38.717 z" />
	<path
   d="m 2230.0872,1255.035 c 7.223,5.53 64.851,22.944 75.598,26.068 70.01,20.228 105.254,21.198 185.258,-1.921 6.136,-1.804 26.475,-8.008 31.767,-11.546 -1.573,-0.559 -3.245,-0.1 -4.844,0.169 -123.268,24.612 -115.624,28.374 -225.352,2.132 -17.924,-4.799 -56.384,-15.643 -62.427,-14.902 z"
   id="path96"
   inkscape:connector-curvature="0"
   style="fill:#020202"
   inkscape:original-d="m 802.521,1255.035 c -7.223,5.53 -64.851,22.944 -75.598,26.068 -70.01,20.228 -105.254,21.198 -185.258,-1.921 -6.136,-1.804 -26.475,-8.008 -31.767,-11.546 1.573,-0.559 3.245,-0.1 4.844,0.169 123.268,24.612 115.624,28.374 225.352,2.132 17.924,-4.799 56.384,-15.643 62.427,-14.902 z" />
	<path
   d="m 2476.5002,1360.579 c -14.129,5.443 -114.216,87.75 -160.314,118.32 -28.762,19.306 -60.445,38.374 -63.867,42.823 8.876,-0.996 52.411,-26.541 64.664,-34.084 53.975,-32.836 156.379,-119.37 159.517,-127.059 z"
   id="path98"
   inkscape:connector-curvature="0"
   style="fill:#020202"
   inkscape:original-d="m 556.108,1360.579 c 14.129,5.443 114.216,87.75 160.314,118.32 28.762,19.306 60.445,38.374 63.867,42.823 -8.876,-0.996 -52.411,-26.541 -64.664,-34.084 -53.975,-32.836 -156.379,-119.37 -159.517,-127.059 z" />
</g>
</svg>